<svg id="Capa_1" data-name="Capa 1" xmlns="http://www.w3.org/2000/svg" viewBox="0 0 181 105"><defs><style>.cls-1{fill:none;stroke:#fcfcfc;stroke-width:3px;}</style></defs><title>pzifer-1</title><path class="cls-1" d="M13.75,78.79H30.07V39.44H15.67V26.72c8.64-1.68,14.16-3.84,19.92-7.44H50.71V78.79H64.39V95.35H13.75Z"/><path class="cls-1" d="M99.19,36.56H66.55V19.28H121V32c-17.52,20.52-19.44,33.72-20.88,63.36H79.51C81,71.35,85,56.12,99.19,36.56Z"/><path class="cls-1" d="M118.19,64.8c0-8.71,4.82-13.8,11.26-13.8s11.26,5.09,11.26,13.8-4.82,13.94-11.26,13.94S118.19,73.51,118.19,64.8Zm14.61,0c0-5.9-1.61-7.5-3.35-7.5s-3.35,1.61-3.35,7.5,1.61,7.64,3.35,7.64S132.79,70.7,132.79,64.8Zm-1.74,31.36L154.37,51h6.43L137.48,96.16Zm20-13.94c0-8.71,4.82-13.8,11.26-13.8s11.26,5.09,11.26,13.8-4.82,13.94-11.26,13.94S151,90.93,151,82.22Zm14.61,0c0-5.9-1.61-7.5-3.35-7.5s-3.35,1.61-3.35,7.5,1.61,7.64,3.35,7.64S165.62,88.12,165.62,82.22Z"/></svg>