<?xml version="1.0" encoding="utf-8"?>
<!-- Generator: Adobe Illustrator 21.0.2, SVG Export Plug-In . SVG Version: 6.00 Build 0)  -->
<svg version="1.1" id="Capa_1" xmlns="http://www.w3.org/2000/svg" xmlns:xlink="http://www.w3.org/1999/xlink" x="0px" y="0px"
	 viewBox="0 0 100 104" style="enable-background:new 0 0 100 104;" xml:space="preserve">
<style type="text/css">
	.st0{fill:#C2C3C4;}
</style>
<path class="st0" d="M39,82.4H28c-0.6,0-1.1-0.5-1.1-1.1v-11c0-0.6,0.5-1.1,1.1-1.1h11c0.6,0,1.1,0.5,1.1,1.1v11
	C40.1,81.9,39.6,82.4,39,82.4z M29.1,80.2h8.8v-8.8h-8.8V80.2z"/>
<path class="st0" d="M71.4,39H45.1c-0.3,0-0.5-0.2-0.5-0.5v-2.2c0-0.3,0.2-0.5,0.5-0.5h26.3c0.3,0,0.6,0.2,0.6,0.5v2.2
	C72,38.8,71.7,39,71.4,39z"/>
<path class="st0" d="M71.4,58.2H45.1c-0.3,0-0.5-0.2-0.5-0.5v-2.2c0-0.3,0.2-0.5,0.5-0.5h26.3c0.3,0,0.6,0.2,0.6,0.5v2.2
	C72,58,71.7,58.2,71.4,58.2z"/>
<path class="st0" d="M71.4,77.4H45.1c-0.3,0-0.5-0.2-0.5-0.5v-2.2c0-0.3,0.2-0.5,0.5-0.5h26.3c0.3,0,0.6,0.2,0.6,0.5v2.2
	C72,77.2,71.7,77.4,71.4,77.4z"/>
<path class="st0" d="M77.4,18.2H64.8V21h12.6c1.5,0,2.6,1.2,2.6,2.6v65.9c0,1.5-1.2,2.6-2.6,2.6H22.6c-1.5,0-2.6-1.2-2.6-2.6V23.7
	c0-1.5,1.2-2.6,2.6-2.6h12.6v-2.9H22.6c-3,0-5.5,2.5-5.5,5.5v65.9c0,3,2.5,5.5,5.5,5.5h54.9c3,0,5.5-2.5,5.5-5.5V23.7
	C82.9,20.6,80.5,18.2,77.4,18.2z"/>
<path class="st0" d="M50,7.9c2.4,0,4.3,1.9,4.3,4.3c0,2.4-1.9,4.3-4.3,4.3c-2.4,0-4.3-1.9-4.3-4.3S47.6,7.9,50,7.9 M50,5
	c-3.9,0-7.1,3.2-7.1,7.1c0,3.9,3.2,7.1,7.1,7.1c3.9,0,7.1-3.2,7.1-7.1C57.1,8.2,53.9,5,50,5L50,5z"/>
<path class="st0" d="M37.9,37.6v4.2h-8.8V33h7.1l2.1-2.2H28c-0.6,0-1.1,0.5-1.1,1.1v11c0,0.6,0.5,1.1,1.1,1.1h11
	c0.6,0,1.1-0.5,1.1-1.1v-7.6L37.9,37.6z"/>
<path class="st0" d="M37.9,56.8V61h-8.8v-8.8h7.1l2.1-2.2H28c-0.6,0-1.1,0.5-1.1,1.1v11c0,0.6,0.5,1.1,1.1,1.1h11
	c0.6,0,1.1-0.5,1.1-1.1v-7.6L37.9,56.8z"/>
<path class="st0" d="M62.1,12.4h-6.6c0,1.1-0.4,2-0.9,2.9h7.5c0.7,0,1.3,0.6,1.3,1.3V22c0,0.7-0.6,1.3-1.3,1.3H37.9
	c-0.7,0-1.3-0.6-1.3-1.3v-5.5c0-0.7,0.6-1.3,1.3-1.3h7.5c-0.6-0.8-0.9-1.8-0.9-2.9h-6.6c-2.3,0-4.2,1.9-4.2,4.2V22
	c0,2.3,1.9,4.2,4.2,4.2h24.1c2.3,0,4.2-1.9,4.2-4.2v-5.5C66.2,14.2,64.4,12.4,62.1,12.4z"/>
<path class="st0" d="M33.5,40.1c0,0-0.1,0-0.1,0c-0.3,0-0.6-0.2-0.8-0.5l-1.8-3c-0.3-0.5-0.1-1.2,0.4-1.5c0.5-0.3,1.2-0.1,1.5,0.4
	l1.1,1.8l6.3-6.6c0.4-0.4,1.1-0.5,1.6,0s0.5,1.1,0,1.6l-7.3,7.7C34.1,40,33.8,40.1,33.5,40.1z"/>
<path class="st0" d="M33.5,59.3c0,0-0.1,0-0.1,0c-0.3,0-0.6-0.2-0.8-0.5l-1.8-3c-0.3-0.5-0.1-1.2,0.4-1.5c0.5-0.3,1.2-0.1,1.5,0.4
	l1.1,1.8l6.3-6.6c0.4-0.4,1.1-0.5,1.6,0c0.4,0.4,0.5,1.1,0,1.6L34.3,59C34.1,59.2,33.8,59.3,33.5,59.3z"/>
</svg>
