<svg xmlns="http://www.w3.org/2000/svg" viewBox="0 0 407 238"><defs><style>.cls-1{fill:none;stroke:#fff;}.cls-2{fill:#fff;}</style></defs><title>pzifer-1</title><g id="grafico"><line class="cls-1" x1="55.5" y1="25.5" x2="55.5" y2="203.5"/><line class="cls-1" x1="55.5" y1="203.5" x2="344.5" y2="203.5"/><path class="cls-1" d="M83.7,58.5h21.82a7,7,0,0,1,7,7v138a0,0,0,0,1,0,0h-36a0,0,0,0,1,0,0V65.7A7.2,7.2,0,0,1,83.7,58.5Z"/><path class="cls-1" d="M135.7,152.5h21.82a7,7,0,0,1,7,7v44a0,0,0,0,1,0,0h-36a0,0,0,0,1,0,0V159.7A7.2,7.2,0,0,1,135.7,152.5Z"/><path class="cls-1" d="M187.7,174.5h21.82a7,7,0,0,1,7,7v22a0,0,0,0,1,0,0h-36a0,0,0,0,1,0,0V181.7A7.2,7.2,0,0,1,187.7,174.5Z"/><path class="cls-1" d="M239.7,185.5h21.82a7,7,0,0,1,7,7v11a0,0,0,0,1,0,0h-36a0,0,0,0,1,0,0V192.7A7.2,7.2,0,0,1,239.7,185.5Z"/><path class="cls-1" d="M290.7,189.5h21.82a7,7,0,0,1,7,7v7a0,0,0,0,1,0,0h-36a0,0,0,0,1,0,0v-6.8A7.2,7.2,0,0,1,290.7,189.5Z"/></g><g id="labels-horizontal"><path class="cls-2" d="M82.09,208.34h1.21c.87,0,1.45.29,1.45,1.16s-.59,1.22-1.45,1.22H82.6v1.56h-.5Zm1.15,2c.69,0,1-.25,1-.81s-.34-.76-1-.76H82.6v1.57Z"/><path class="cls-2" d="M85.6,209.36H86l0,.53h0a1,1,0,0,1,.83-.6.72.72,0,0,1,.31.06l-.1.43a.81.81,0,0,0-.28,0c-.25,0-.54.18-.74.67v1.87H85.6Z"/><path class="cls-2" d="M87.71,208.44a.34.34,0,0,1,.68,0,.34.34,0,0,1-.68,0Zm.09.92h.49v2.91H87.8Z"/><path class="cls-2" d="M89.39,209.36h.41l0,.42h0a1.28,1.28,0,0,1,.91-.49.76.76,0,0,1,.8.56,1.38,1.38,0,0,1,1-.56c.6,0,.89.4.89,1.14v1.85h-.49v-1.78c0-.55-.17-.78-.54-.78a1.07,1.07,0,0,0-.73.45v2.11h-.49v-1.78c0-.55-.17-.78-.55-.78a1.09,1.09,0,0,0-.73.45v2.11h-.49Z"/><path class="cls-2" d="M95.57,209.29c.74,0,1.16.53,1.16,1.37a1.7,1.7,0,0,1,0,.27h-2a1,1,0,0,0,1,1,1.32,1.32,0,0,0,.73-.23l.17.32a1.74,1.74,0,0,1-1,.3,1.54,1.54,0,0,1-.09-3.06Zm.73,1.31c0-.59-.26-.92-.72-.92a.91.91,0,0,0-.84.92Z"/><path class="cls-2" d="M97.57,209.36H98l0,.53h0a1,1,0,0,1,.83-.6.72.72,0,0,1,.31.06l-.1.43a.81.81,0,0,0-.28,0c-.25,0-.54.18-.74.67v1.87h-.49Z"/><path class="cls-2" d="M100.84,209.29a1.54,1.54,0,1,1-1.35,1.54A1.39,1.39,0,0,1,100.84,209.29Zm0,2.65c.5,0,.84-.45.84-1.12s-.34-1.13-.84-1.13-.84.46-.84,1.13S100.34,211.94,100.84,211.94Z"/><path class="cls-2" d="M103,211.61a1.31,1.31,0,0,0,.86.35c.38,0,.58-.2.58-.46s-.35-.43-.67-.55-.87-.35-.87-.84.37-.83,1-.83a1.45,1.45,0,0,1,.91.33l-.23.31a1.08,1.08,0,0,0-.67-.26c-.37,0-.53.2-.53.42s.32.38.65.5.89.33.89.88-.38.87-1.07.87a1.75,1.75,0,0,1-1.09-.4Z"/><path class="cls-2" d="M84.62,218.68a1.3,1.3,0,0,0,1,.46.71.71,0,0,0,.79-.7c0-.46-.31-.76-1.22-.76v-.38c.82,0,1.09-.31,1.09-.71a.59.59,0,0,0-.66-.61,1.16,1.16,0,0,0-.82.39l-.26-.31a1.57,1.57,0,0,1,1.1-.48c.67,0,1.15.35,1.15,1a1,1,0,0,1-.7.91v0a1,1,0,0,1,.83,1,1.13,1.13,0,0,1-1.26,1.09,1.62,1.62,0,0,1-1.26-.54Z"/><path class="cls-2" d="M87.57,217.55c0-1.28.46-2,1.23-2s1.22.69,1.22,2-.46,2-1.22,2S87.57,218.83,87.57,217.55Zm2,0c0-1.12-.3-1.58-.74-1.58s-.75.46-.75,1.58.3,1.6.75,1.6S89.54,218.67,89.54,217.55Z"/><path class="cls-2" d="M93.27,216.49a1.2,1.2,0,0,1,.82.34l0-.5V215.2h.5v4.27h-.41l0-.34h0a1.32,1.32,0,0,1-.88.41c-.73,0-1.21-.55-1.21-1.52A1.38,1.38,0,0,1,93.27,216.49Zm0,2.64a1,1,0,0,0,.74-.4v-1.52a1,1,0,0,0-.71-.31c-.47,0-.84.45-.84,1.12S92.81,219.13,93.32,219.13Z"/><path class="cls-2" d="M95.9,216h-.38l.54-.84h.52Zm-.23.52h.49v2.91h-.49Z"/><path class="cls-2" d="M98.9,217.63c0-.37-.13-.73-.6-.73a1.57,1.57,0,0,0-.87.31l-.2-.34a2.16,2.16,0,0,1,1.15-.38c.71,0,1,.47,1,1.2v1.79H99l0-.35h0a1.59,1.59,0,0,1-1,.42.79.79,0,0,1-.86-.83C97.11,218.08,97.66,217.76,98.9,217.63Zm-.8,1.52a1.19,1.19,0,0,0,.8-.39v-.81c-1,.12-1.31.36-1.31.73A.45.45,0,0,0,98.1,219.15Z"/><path class="cls-2" d="M100.36,218.81a1.31,1.31,0,0,0,.86.35c.38,0,.58-.2.58-.46s-.35-.43-.67-.55-.87-.35-.87-.84.37-.83,1-.83a1.45,1.45,0,0,1,.91.33l-.23.31a1.08,1.08,0,0,0-.67-.26c-.37,0-.53.2-.53.42s.32.38.65.5.89.33.89.88-.38.87-1.07.87a1.75,1.75,0,0,1-1.09-.4Z"/><path class="cls-2" d="M30.16,198.74c0-1.5.54-2.3,1.44-2.3s1.43.81,1.43,2.3-.54,2.33-1.43,2.33S30.16,200.24,30.16,198.74Zm2.3,0c0-1.31-.35-1.84-.87-1.84s-.88.53-.88,1.84.35,1.87.88,1.87S32.46,200,32.46,198.74Z"/><path class="cls-2" d="M34.34,200.19a.42.42,0,0,1,.41.45.42.42,0,1,1-.83,0A.42.42,0,0,1,34.34,200.19Z"/><path class="cls-2" d="M35.65,198.74c0-1.5.54-2.3,1.44-2.3s1.43.81,1.43,2.3-.54,2.33-1.43,2.33S35.65,200.24,35.65,198.74Zm2.3,0c0-1.31-.35-1.84-.87-1.84s-.88.53-.88,1.84.35,1.87.88,1.87S38,200,38,198.74Z"/><path class="cls-2" d="M30.16,166.74c0-1.5.54-2.3,1.44-2.3s1.43.81,1.43,2.3-.54,2.33-1.43,2.33S30.16,168.24,30.16,166.74Zm2.3,0c0-1.31-.35-1.84-.87-1.84s-.88.53-.88,1.84.35,1.87.88,1.87S32.46,168,32.46,166.74Z"/><path class="cls-2" d="M34.34,168.19a.42.42,0,0,1,.41.45.42.42,0,1,1-.83,0A.42.42,0,0,1,34.34,168.19Z"/><path class="cls-2" d="M35.81,168.06a1.52,1.52,0,0,0,1.14.53.83.83,0,0,0,.92-.82c0-.53-.36-.89-1.43-.89v-.44c1,0,1.27-.36,1.27-.83a.69.69,0,0,0-.77-.71,1.35,1.35,0,0,0-1,.46l-.31-.36a1.84,1.84,0,0,1,1.28-.56c.78,0,1.34.41,1.34,1.13a1.11,1.11,0,0,1-.81,1.06v0a1.15,1.15,0,0,1,1,1.13A1.32,1.32,0,0,1,37,169.07a1.9,1.9,0,0,1-1.47-.63Z"/><path class="cls-2" d="M30.16,135.74c0-1.5.54-2.3,1.44-2.3s1.43.81,1.43,2.3-.54,2.33-1.43,2.33S30.16,137.24,30.16,135.74Zm2.3,0c0-1.31-.35-1.84-.87-1.84s-.88.53-.88,1.84.35,1.87.88,1.87S32.46,137,32.46,135.74Z"/><path class="cls-2" d="M34.34,137.19a.42.42,0,0,1,.41.45.42.42,0,1,1-.83,0A.42.42,0,0,1,34.34,137.19Z"/><path class="cls-2" d="M38.13,134.27a1,1,0,0,0-.74-.35c-.62,0-1.15.48-1.18,1.9a1.43,1.43,0,0,1,1-.56,1.21,1.21,0,0,1,1.27,1.38,1.35,1.35,0,0,1-1.32,1.44c-.88,0-1.54-.71-1.54-2.15,0-1.79.81-2.49,1.7-2.49a1.41,1.41,0,0,1,1.08.48ZM38,136.63c0-.58-.27-.95-.83-.95a1.21,1.21,0,0,0-.93.59c.07.87.41,1.34,1,1.34S38,137.22,38,136.63Z"/><path class="cls-2" d="M30.16,105.74c0-1.5.54-2.3,1.44-2.3s1.43.81,1.43,2.3-.54,2.33-1.43,2.33S30.16,107.24,30.16,105.74Zm2.3,0c0-1.31-.35-1.84-.87-1.84s-.88.53-.88,1.84.35,1.87.88,1.87S32.46,107,32.46,105.74Z"/><path class="cls-2" d="M34.34,107.19a.42.42,0,0,1,.41.45.42.42,0,1,1-.83,0A.42.42,0,0,1,34.34,107.19Z"/><path class="cls-2" d="M36,107.24a1,1,0,0,0,.74.36c.63,0,1.16-.49,1.18-1.92a1.4,1.4,0,0,1-1.05.57,1.2,1.2,0,0,1-1.27-1.38,1.35,1.35,0,0,1,1.32-1.44c.88,0,1.54.71,1.54,2.15,0,1.79-.81,2.49-1.7,2.49a1.43,1.43,0,0,1-1.08-.47Zm1.91-2c-.08-.87-.42-1.33-1-1.33s-.78.39-.78,1,.27.95.83.95A1.2,1.2,0,0,0,37.92,105.22Z"/><path class="cls-2" d="M30.4,74.51h1V71.22h-.81v-.37a2.64,2.64,0,0,0,.95-.33H32v4h.92V75H30.4Z"/><path class="cls-2" d="M34.34,74.19a.42.42,0,0,1,.41.45.42.42,0,1,1-.83,0A.42.42,0,0,1,34.34,74.19Z"/><path class="cls-2" d="M35.62,74.64c1.34-1.34,2.1-2.14,2.1-2.87a.79.79,0,0,0-.85-.87,1.32,1.32,0,0,0-1,.54l-.33-.33a1.76,1.76,0,0,1,1.35-.68,1.24,1.24,0,0,1,1.34,1.32c0,.84-.76,1.67-1.82,2.78.25,0,.52,0,.75,0h1.3V75H35.62Z"/><path class="cls-2" d="M30.4,42.51h1V39.22h-.81v-.37a2.64,2.64,0,0,0,.95-.33H32v4h.92V43H30.4Z"/><path class="cls-2" d="M34.34,42.19a.42.42,0,0,1,.41.45.42.42,0,1,1-.83,0A.42.42,0,0,1,34.34,42.19Z"/><path class="cls-2" d="M35.79,42.08a1.52,1.52,0,0,0,1.13.51,1,1,0,0,0,1-1,.9.9,0,0,0-1-1,1.26,1.26,0,0,0-.76.27l-.31-.2L36,38.52h2.23V39H36.53l-.12,1.32a1.37,1.37,0,0,1,.69-.18,1.29,1.29,0,0,1,1.39,1.4A1.46,1.46,0,0,1,37,43.07a2,2,0,0,1-1.46-.61Z"/><path class="cls-2" d="M133.94,210.48l-2.57,1v-.43l1.27-.47.8-.3v0l-.8-.3-1.27-.47v-.43l2.57,1Z"/><path class="cls-2" d="M136.06,211.86h.88V209h-.7v-.32a2.29,2.29,0,0,0,.81-.28h.38v3.42h.79v.41h-2.16Z"/><path class="cls-2" d="M138.93,210.58h1.38V211h-1.38Z"/><path class="cls-2" d="M143.06,209.09a.83.83,0,0,0-.63-.3c-.53,0-1,.41-1,1.63a1.23,1.23,0,0,1,.89-.48,1,1,0,0,1,1.09,1.18,1.16,1.16,0,0,1-1.13,1.23c-.75,0-1.32-.61-1.32-1.84,0-1.54.7-2.13,1.46-2.13a1.21,1.21,0,0,1,.92.41Zm-.12,2c0-.5-.23-.81-.71-.81a1,1,0,0,0-.8.5c.06.74.35,1.15.84,1.15S142.94,211.62,142.94,211.11Z"/><path class="cls-2" d="M145.58,209.36H146l0,.42h0a1.28,1.28,0,0,1,.91-.49.76.76,0,0,1,.8.56,1.38,1.38,0,0,1,1-.56c.6,0,.89.4.89,1.14v1.85h-.49v-1.78c0-.55-.17-.78-.54-.78a1.07,1.07,0,0,0-.73.45v2.11h-.49v-1.78c0-.55-.17-.78-.55-.78a1.09,1.09,0,0,0-.73.45v2.11h-.49Z"/><path class="cls-2" d="M151.76,209.29c.74,0,1.16.53,1.16,1.37a1.7,1.7,0,0,1,0,.27h-2a1,1,0,0,0,1,1,1.32,1.32,0,0,0,.73-.23l.17.32a1.74,1.74,0,0,1-1,.3,1.54,1.54,0,0,1-.09-3.06Zm.73,1.31c0-.59-.26-.92-.72-.92a.91.91,0,0,0-.84.92Z"/><path class="cls-2" d="M153.68,211.61a1.31,1.31,0,0,0,.86.35c.38,0,.58-.2.58-.46s-.35-.43-.67-.55-.87-.35-.87-.84.37-.83,1-.83a1.45,1.45,0,0,1,.91.33l-.23.31a1.08,1.08,0,0,0-.67-.26c-.37,0-.53.2-.53.42s.32.38.65.5.89.33.89.88-.38.87-1.07.87a1.75,1.75,0,0,1-1.09-.4Z"/><path class="cls-2" d="M157.48,209.29c.74,0,1.16.53,1.16,1.37a1.7,1.7,0,0,1,0,.27h-2a1,1,0,0,0,1,1,1.32,1.32,0,0,0,.73-.23l.17.32a1.74,1.74,0,0,1-1,.3,1.54,1.54,0,0,1-.09-3.06Zm.73,1.31c0-.59-.26-.92-.72-.92a.91.91,0,0,0-.84.92Z"/><path class="cls-2" d="M159.4,211.61a1.31,1.31,0,0,0,.86.35c.38,0,.58-.2.58-.46s-.35-.43-.67-.55-.87-.35-.87-.84.37-.83,1-.83a1.45,1.45,0,0,1,.91.33l-.23.31a1.08,1.08,0,0,0-.67-.26c-.37,0-.53.2-.53.42s.32.38.65.5.89.33.89.88-.38.87-1.07.87a1.75,1.75,0,0,1-1.09-.4Z"/><path class="cls-2" d="M184.9,210.48l-2.57,1v-.43l1.27-.47.8-.3v0l-.8-.3-1.27-.47v-.43l2.57,1Z"/><path class="cls-2" d="M187,211.86h.88V209h-.7v-.32a2.29,2.29,0,0,0,.81-.28h.38v3.42h.79v.41H187Z"/><path class="cls-2" d="M189.88,210.58h1.38V211h-1.38Z"/><path class="cls-2" d="M192.09,211.86H193V209h-.7v-.32a2.29,2.29,0,0,0,.81-.28h.38v3.42h.79v.41h-2.16Z"/><path class="cls-2" d="M195,212c1.15-1.15,1.8-1.83,1.8-2.45a.68.68,0,0,0-.73-.75,1.13,1.13,0,0,0-.82.46l-.28-.28a1.5,1.5,0,0,1,1.16-.58,1.06,1.06,0,0,1,1.15,1.13c0,.72-.65,1.43-1.56,2.38.21,0,.44,0,.64,0h1.11v.43H195Z"/><path class="cls-2" d="M199.63,209.36H200l0,.42h0a1.28,1.28,0,0,1,.91-.49.76.76,0,0,1,.8.56,1.38,1.38,0,0,1,1-.56c.6,0,.89.4.89,1.14v1.85h-.49v-1.78c0-.55-.17-.78-.54-.78a1.07,1.07,0,0,0-.73.45v2.11h-.49v-1.78c0-.55-.17-.78-.55-.78a1.09,1.09,0,0,0-.73.45v2.11h-.49Z"/><path class="cls-2" d="M205.81,209.29c.74,0,1.16.53,1.16,1.37a1.7,1.7,0,0,1,0,.27h-2a1,1,0,0,0,1,1,1.32,1.32,0,0,0,.73-.23l.17.32a1.74,1.74,0,0,1-1,.3,1.54,1.54,0,0,1-.09-3.06Zm.73,1.31c0-.59-.26-.92-.72-.92a.91.91,0,0,0-.84.92Z"/><path class="cls-2" d="M207.73,211.61a1.31,1.31,0,0,0,.86.35c.38,0,.58-.2.58-.46s-.35-.43-.67-.55-.87-.35-.87-.84.37-.83,1-.83a1.45,1.45,0,0,1,.91.33l-.23.31a1.08,1.08,0,0,0-.67-.26c-.37,0-.53.2-.53.42s.32.38.65.5.89.33.89.88-.38.87-1.07.87a1.75,1.75,0,0,1-1.09-.4Z"/><path class="cls-2" d="M211.53,209.29c.74,0,1.16.53,1.16,1.37a1.7,1.7,0,0,1,0,.27h-2a1,1,0,0,0,1,1,1.32,1.32,0,0,0,.73-.23l.17.32a1.74,1.74,0,0,1-1,.3,1.54,1.54,0,0,1-.09-3.06Zm.73,1.31c0-.59-.26-.92-.72-.92a.91.91,0,0,0-.84.92Z"/><path class="cls-2" d="M213.45,211.61a1.31,1.31,0,0,0,.86.35c.38,0,.58-.2.58-.46s-.35-.43-.67-.55-.87-.35-.87-.84.37-.83,1-.83a1.45,1.45,0,0,1,.91.33l-.23.31a1.08,1.08,0,0,0-.67-.26c-.37,0-.53.2-.53.42s.32.38.65.5.89.33.89.88-.38.87-1.07.87a1.75,1.75,0,0,1-1.09-.4Z"/><path class="cls-2" d="M240.42,210.48l-2.57,1v-.43l1.27-.47.8-.3v0l-.8-.3-1.27-.47v-.43l2.57,1Z"/><path class="cls-2" d="M242.54,211.86h.88V209h-.7v-.32a2.29,2.29,0,0,0,.81-.28h.38v3.42h.79v.41h-2.16Z"/><path class="cls-2" d="M245.41,210.58h1.38V211h-1.38Z"/><path class="cls-2" d="M247.38,212c1.15-1.15,1.8-1.83,1.8-2.45a.68.68,0,0,0-.73-.75,1.13,1.13,0,0,0-.82.46l-.28-.28a1.5,1.5,0,0,1,1.16-.58,1.06,1.06,0,0,1,1.15,1.13c0,.72-.65,1.43-1.56,2.38.21,0,.44,0,.64,0h1.11v.43h-2.47Z"/><path class="cls-2" d="M253.7,210.42c0-.37-.13-.73-.6-.73a1.57,1.57,0,0,0-.87.31l-.2-.34a2.16,2.16,0,0,1,1.15-.38c.71,0,1,.47,1,1.2v1.79h-.41l0-.35h0a1.59,1.59,0,0,1-1,.42.79.79,0,0,1-.86-.83C251.91,210.88,252.46,210.56,253.7,210.42Zm-.8,1.52a1.19,1.19,0,0,0,.8-.39v-.81c-1,.12-1.31.36-1.31.73A.45.45,0,0,0,252.91,211.95Z"/><path class="cls-2" d="M255.24,209.36h.41l0,.42h0a1.37,1.37,0,0,1,1-.49c.61,0,.89.4.89,1.14v1.85h-.49v-1.78c0-.55-.17-.78-.55-.78s-.5.16-.8.45v2.11h-.49Zm.91-1.19c.3,0,.49.31.68.31s.19-.1.22-.31h.28c0,.36-.19.64-.49.64s-.48-.31-.68-.31-.19.1-.22.31h-.28C255.69,208.44,255.86,208.16,256.15,208.16Z"/><path class="cls-2" d="M259.77,209.29a1.54,1.54,0,1,1-1.35,1.54A1.39,1.39,0,0,1,259.77,209.29Zm0,2.65c.5,0,.84-.45.84-1.12s-.34-1.13-.84-1.13-.84.46-.84,1.13S259.27,211.94,259.77,211.94Z"/><path class="cls-2" d="M261.92,211.61a1.31,1.31,0,0,0,.86.35c.38,0,.58-.2.58-.46s-.35-.43-.67-.55-.87-.35-.87-.84.37-.83,1-.83a1.45,1.45,0,0,1,.91.33l-.23.31a1.08,1.08,0,0,0-.67-.26c-.37,0-.53.2-.53.42s.32.38.65.5.89.33.89.88-.38.87-1.07.87a1.75,1.75,0,0,1-1.09-.4Z"/><path class="cls-2" d="M291.42,210.48l-2.57,1v-.43l1.27-.47.8-.3v0l-.8-.3-1.27-.47v-.43l2.57,1Z"/><path class="cls-2" d="M293.3,212c1.15-1.15,1.8-1.83,1.8-2.45a.68.68,0,0,0-.73-.75,1.13,1.13,0,0,0-.82.46l-.28-.28a1.5,1.5,0,0,1,1.16-.58,1.06,1.06,0,0,1,1.15,1.13c0,.72-.65,1.43-1.56,2.38.21,0,.44,0,.64,0h1.11v.43H293.3Z"/><path class="cls-2" d="M296.41,210.58h1.38V211h-1.38Z"/><path class="cls-2" d="M298.55,211.48a1.3,1.3,0,0,0,1,.46.71.71,0,0,0,.79-.7c0-.46-.31-.76-1.22-.76v-.38c.82,0,1.09-.31,1.09-.71a.59.59,0,0,0-.66-.61,1.16,1.16,0,0,0-.82.39l-.26-.31a1.57,1.57,0,0,1,1.1-.48c.67,0,1.15.35,1.15,1a1,1,0,0,1-.7.91v0a1,1,0,0,1,.83,1,1.13,1.13,0,0,1-1.26,1.09,1.62,1.62,0,0,1-1.26-.54Z"/><path class="cls-2" d="M304.7,210.42c0-.37-.13-.73-.6-.73a1.57,1.57,0,0,0-.87.31l-.2-.34a2.16,2.16,0,0,1,1.15-.38c.71,0,1,.47,1,1.2v1.79h-.41l0-.35h0a1.59,1.59,0,0,1-1,.42.79.79,0,0,1-.86-.83C302.91,210.88,303.46,210.56,304.7,210.42Zm-.8,1.52a1.19,1.19,0,0,0,.8-.39v-.81c-1,.12-1.31.36-1.31.73A.45.45,0,0,0,303.91,211.95Z"/><path class="cls-2" d="M306.24,209.36h.41l0,.42h0a1.37,1.37,0,0,1,1-.49c.61,0,.89.4.89,1.14v1.85h-.49v-1.78c0-.55-.17-.78-.55-.78s-.5.16-.8.45v2.11h-.49Zm.91-1.19c.3,0,.49.31.68.31s.19-.1.22-.31h.28c0,.36-.19.64-.49.64s-.48-.31-.68-.31-.19.1-.22.31h-.28C306.69,208.44,306.86,208.16,307.15,208.16Z"/><path class="cls-2" d="M310.77,209.29a1.54,1.54,0,1,1-1.35,1.54A1.39,1.39,0,0,1,310.77,209.29Zm0,2.65c.5,0,.84-.45.84-1.12s-.34-1.13-.84-1.13-.84.46-.84,1.13S310.27,211.94,310.77,211.94Z"/><path class="cls-2" d="M312.92,211.61a1.31,1.31,0,0,0,.86.35c.38,0,.58-.2.58-.46s-.35-.43-.67-.55-.87-.35-.87-.84.37-.83,1-.83a1.45,1.45,0,0,1,.91.33l-.23.31a1.08,1.08,0,0,0-.67-.26c-.37,0-.53.2-.53.42s.32.38.65.5.89.33.89.88-.38.87-1.07.87a1.75,1.75,0,0,1-1.09-.4Z"/><path class="cls-2" d="M22.94,12H21.87V11.3h3V12H23.83v3.17h-.88Z"/><path class="cls-2" d="M26.74,13.29a.41.41,0,0,0-.47-.43,1.6,1.6,0,0,0-.79.27l-.31-.58a2.46,2.46,0,0,1,1.27-.39c.76,0,1.18.43,1.18,1.34v1.7H26.9l-.07-.31h0a1.31,1.31,0,0,1-.87.38.85.85,0,0,1-.88-.9C25.06,13.75,25.56,13.41,26.74,13.29Zm-.49,1.3a.66.66,0,0,0,.49-.25v-.52c-.63.08-.83.26-.83.49S26,14.59,26.24,14.59Z"/><path class="cls-2" d="M28.62,14.31a1.28,1.28,0,0,0,.77.31c.26,0,.38-.1.38-.25s-.3-.29-.61-.41-.79-.38-.79-.88.45-.93,1.14-.93a1.71,1.71,0,0,1,1,.38l-.4.53a1.1,1.1,0,0,0-.63-.25c-.23,0-.34.08-.34.23s.28.26.58.38.8.35.8.89-.43,1-1.22,1a1.92,1.92,0,0,1-1.14-.41Z"/><path class="cls-2" d="M32.83,13.29a.41.41,0,0,0-.47-.43,1.6,1.6,0,0,0-.79.27l-.31-.58a2.46,2.46,0,0,1,1.27-.39c.76,0,1.18.43,1.18,1.34v1.7H33l-.07-.31h0a1.31,1.31,0,0,1-.87.38.85.85,0,0,1-.88-.9C31.15,13.75,31.65,13.41,32.83,13.29Zm-.49,1.3a.66.66,0,0,0,.49-.25v-.52c-.63.08-.83.26-.83.49S32.12,14.59,32.33,14.59Z"/><path class="cls-2" d="M37,12.16a1,1,0,0,1,.73.31l0-.46V11h.88v4.2h-.72l-.06-.29h0a1.18,1.18,0,0,1-.79.37c-.74,0-1.22-.59-1.22-1.56A1.39,1.39,0,0,1,37,12.16Zm.21,2.4a.56.56,0,0,0,.49-.27V13.07a.71.71,0,0,0-.49-.19c-.28,0-.53.26-.53.83S36.89,14.56,37.23,14.56Z"/><path class="cls-2" d="M40.72,12.16A1.26,1.26,0,0,1,42,13.59,1.79,1.79,0,0,1,42,14H40.17a.72.72,0,0,0,.77.65,1.2,1.2,0,0,0,.64-.2l.29.53a2,2,0,0,1-1.06.34,1.45,1.45,0,0,1-1.51-1.56A1.46,1.46,0,0,1,40.72,12.16Zm.52,1.25c0-.34-.14-.58-.5-.58s-.52.19-.58.58Z"/><path class="cls-2" d="M43.94,12.16a1.26,1.26,0,0,1,1.27,1.43,1.79,1.79,0,0,1,0,.37H43.39a.72.72,0,0,0,.77.65,1.2,1.2,0,0,0,.64-.2l.29.53a2,2,0,0,1-1.06.34,1.45,1.45,0,0,1-1.51-1.56A1.46,1.46,0,0,1,43.94,12.16Zm.52,1.25c0-.34-.14-.58-.5-.58s-.52.19-.58.58Z"/><path class="cls-2" d="M45.58,12.23h.89l.38,1.4c.08.29.16.61.23.92h0c.07-.31.15-.62.23-.92l.39-1.4h.85l-1,3h-1Z"/><path class="cls-2" d="M50.33,12.16a1.26,1.26,0,0,1,1.27,1.43,1.79,1.79,0,0,1,0,.37H49.78a.72.72,0,0,0,.77.65,1.2,1.2,0,0,0,.64-.2l.29.53a2,2,0,0,1-1.06.34,1.45,1.45,0,0,1-1.51-1.56A1.46,1.46,0,0,1,50.33,12.16Zm.52,1.25c0-.34-.14-.58-.5-.58s-.52.19-.58.58Z"/><path class="cls-2" d="M52.33,12.23H53l.06.38h0a1.37,1.37,0,0,1,1-.45c.65,0,.92.46.92,1.2v1.85h-.88V13.47c0-.43-.11-.56-.37-.56a.75.75,0,0,0-.55.29v2h-.88Z"/><path class="cls-2" d="M56,12.92h-.41v-.65l.46,0,.1-.79h.73v.79h.71v.69h-.71v1.19c0,.34.15.47.38.47a.83.83,0,0,0,.28-.06l.14.64a2.13,2.13,0,0,1-.66.11c-.74,0-1-.46-1-1.15Z"/><path class="cls-2" d="M59.5,12.16a1.46,1.46,0,0,1,1.45,1.56,1.45,1.45,0,1,1-2.9,0A1.46,1.46,0,0,1,59.5,12.16Zm0,2.4c.36,0,.55-.33.55-.85s-.19-.85-.55-.85-.55.33-.55.85S59.14,14.56,59.5,14.56Z"/><path class="cls-2" d="M61.77,14.31a1.28,1.28,0,0,0,.77.31c.26,0,.38-.1.38-.25s-.3-.29-.61-.41-.79-.38-.79-.88.45-.93,1.14-.93a1.71,1.71,0,0,1,1,.38l-.4.53a1.1,1.1,0,0,0-.63-.25c-.23,0-.34.08-.34.23s.28.26.58.38.8.35.8.89-.43,1-1.22,1a1.92,1.92,0,0,1-1.14-.41Z"/><path class="cls-2" d="M65.82,13.54a5,5,0,0,1,.79-2.74l.55.23a5.33,5.33,0,0,0,0,5l-.55.23A5,5,0,0,1,65.82,13.54Z"/><path class="cls-2" d="M67.72,12.46c0-.78.41-1.24,1-1.24s1,.46,1,1.24-.41,1.25-1,1.25S67.72,13.25,67.72,12.46Zm1.33,0c0-.55-.16-.74-.36-.74s-.36.19-.36.74.16.76.36.76S69,13,69,12.46Zm-.22,2.82,2.11-4.05h.5l-2.1,4.05ZM70.6,14c0-.78.41-1.24,1-1.24s1,.46,1,1.24-.41,1.25-1,1.25S70.6,14.82,70.6,14Zm1.34,0c0-.56-.16-.74-.36-.74s-.36.19-.36.74.16.76.36.76S71.93,14.59,71.93,14Z"/><path class="cls-2" d="M74.1,10.95h.58l-1.21,5.22H72.9Z"/><path class="cls-2" d="M75.36,12.23h.72l.06.38h0a1.25,1.25,0,0,1,.9-.46.82.82,0,0,1,.82.5,1.3,1.3,0,0,1,.94-.5c.64,0,.93.46.93,1.2v1.85h-.88V13.47c0-.43-.11-.56-.37-.56a.79.79,0,0,0-.51.29v2h-.88V13.47c0-.43-.11-.56-.37-.56a.78.78,0,0,0-.5.29v2h-.88Z"/><path class="cls-2" d="M81.84,12.16a1.26,1.26,0,0,1,1.27,1.43,1.79,1.79,0,0,1,0,.37H81.29a.72.72,0,0,0,.77.65,1.2,1.2,0,0,0,.64-.2l.29.53a2,2,0,0,1-1.06.34,1.45,1.45,0,0,1-1.51-1.56A1.46,1.46,0,0,1,81.84,12.16Zm.52,1.25c0-.34-.14-.58-.5-.58s-.52.19-.58.58Z"/><path class="cls-2" d="M84,14.31a1.28,1.28,0,0,0,.77.31c.26,0,.38-.1.38-.25s-.3-.29-.61-.41-.79-.38-.79-.88.45-.93,1.14-.93a1.71,1.71,0,0,1,1,.38l-.4.53a1.1,1.1,0,0,0-.63-.25c-.23,0-.34.08-.34.23s.28.26.58.38.8.35.8.89-.43,1-1.22,1a1.92,1.92,0,0,1-1.14-.41Z"/><path class="cls-2" d="M87.14,13.54A5.08,5.08,0,0,0,86.5,11l.55-.23a5.14,5.14,0,0,1,0,5.48l-.55-.23A5.08,5.08,0,0,0,87.14,13.54Z"/><path class="cls-2" d="M161.42,227h-1.08v-.74h3V227H162.3v3.17h-.88Z"/><path class="cls-2" d="M164,226.33a.51.51,0,1,1,.51.46A.47.47,0,0,1,164,226.33Zm.07.9h.88v3H164Z"/><path class="cls-2" d="M167,227.16a1.26,1.26,0,0,1,1.27,1.43,1.79,1.79,0,0,1,0,.37h-1.78a.72.72,0,0,0,.77.65,1.19,1.19,0,0,0,.64-.2l.29.53a1.94,1.94,0,0,1-1.06.33,1.56,1.56,0,0,1-.1-3.12Zm.52,1.25c0-.34-.14-.58-.5-.58s-.52.19-.58.58Z"/><path class="cls-2" d="M169,227.23h.72l.06.38h0a1.24,1.24,0,0,1,.9-.46.82.82,0,0,1,.82.5,1.3,1.3,0,0,1,.94-.5c.64,0,.93.46.93,1.2v1.85h-.88v-1.73c0-.43-.11-.56-.37-.56a.79.79,0,0,0-.51.29v2h-.88v-1.73c0-.43-.11-.56-.37-.56a.78.78,0,0,0-.5.29v2H169Z"/><path class="cls-2" d="M175.16,230.44v.87h-.88v-4.08H175l.06.29h0a1.31,1.31,0,0,1,.85-.37c.72,0,1.16.59,1.16,1.51s-.61,1.61-1.25,1.61a1,1,0,0,1-.71-.31Zm.47-.88c.31,0,.55-.26.55-.87s-.16-.8-.52-.8a.69.69,0,0,0-.51.27v1.22A.69.69,0,0,0,175.64,229.56Z"/><path class="cls-2" d="M179.11,227.16a1.56,1.56,0,1,1-1.45,1.56A1.46,1.46,0,0,1,179.11,227.16Zm0,2.4c.36,0,.55-.33.55-.85s-.19-.85-.55-.85-.55.33-.55.85S178.74,229.56,179.11,229.56Z"/><path class="cls-2" d="M183.72,227.16a1,1,0,0,1,.73.31l0-.46v-1h.88v4.2h-.72l-.06-.29h0a1.18,1.18,0,0,1-.79.37c-.74,0-1.22-.59-1.22-1.56A1.39,1.39,0,0,1,183.72,227.16Zm.21,2.4a.56.56,0,0,0,.49-.27v-1.22a.71.71,0,0,0-.49-.19c-.28,0-.53.26-.53.83S183.59,229.56,183.93,229.56Z"/><path class="cls-2" d="M187.42,227.16a1.26,1.26,0,0,1,1.27,1.43,1.79,1.79,0,0,1,0,.37h-1.78a.72.72,0,0,0,.77.65,1.19,1.19,0,0,0,.64-.2l.29.53a1.94,1.94,0,0,1-1.06.33,1.56,1.56,0,0,1-.1-3.12Zm.52,1.25c0-.34-.14-.58-.5-.58s-.52.19-.58.58Z"/><path class="cls-2" d="M189.54,229.31a1.28,1.28,0,0,0,.77.31c.26,0,.38-.1.38-.25s-.3-.29-.61-.41-.79-.38-.79-.87.45-.93,1.14-.93a1.71,1.71,0,0,1,1,.38l-.4.53a1.1,1.1,0,0,0-.63-.25c-.23,0-.34.08-.34.23s.28.26.58.38.8.35.8.89-.43,1-1.22,1a1.92,1.92,0,0,1-1.14-.41Z"/><path class="cls-2" d="M193.26,227.16a1,1,0,0,1,.73.31l0-.46v-1h.88v4.2h-.72l-.06-.29h0a1.18,1.18,0,0,1-.79.37c-.74,0-1.22-.59-1.22-1.56A1.39,1.39,0,0,1,193.26,227.16Zm.21,2.4a.56.56,0,0,0,.49-.27v-1.22a.71.71,0,0,0-.49-.19c-.28,0-.53.26-.53.83S193.13,229.56,193.47,229.56Z"/><path class="cls-2" d="M197,227.16a1.26,1.26,0,0,1,1.27,1.43,1.79,1.79,0,0,1,0,.37h-1.78a.72.72,0,0,0,.77.65,1.19,1.19,0,0,0,.64-.2l.29.53a1.94,1.94,0,0,1-1.06.33,1.56,1.56,0,0,1-.1-3.12Zm.52,1.25c0-.34-.14-.58-.5-.58s-.52.19-.58.58Z"/><path class="cls-2" d="M200.32,226h.88v3.32c0,.19.08.25.16.25h.11l.11.65a1.15,1.15,0,0,1-.44.07c-.61,0-.81-.39-.81-1Z"/><path class="cls-2" d="M203.72,228.29a.41.41,0,0,0-.47-.43,1.6,1.6,0,0,0-.79.27l-.31-.58a2.47,2.47,0,0,1,1.27-.39c.76,0,1.18.43,1.18,1.34v1.7h-.72l-.07-.31h0a1.31,1.31,0,0,1-.87.38.85.85,0,0,1-.88-.9C202,228.75,202.54,228.41,203.72,228.29Zm-.49,1.3a.66.66,0,0,0,.49-.25v-.52c-.63.08-.83.26-.83.49S203,229.59,203.22,229.59Z"/><path class="cls-2" d="M208.4,228.29a.41.41,0,0,0-.47-.43,1.6,1.6,0,0,0-.79.27l-.31-.58a2.47,2.47,0,0,1,1.27-.39c.76,0,1.18.43,1.18,1.34v1.7h-.72l-.07-.31h0a1.31,1.31,0,0,1-.87.38.85.85,0,0,1-.88-.9C206.72,228.75,207.22,228.41,208.4,228.29Zm-.49,1.3a.66.66,0,0,0,.49-.25v-.52c-.63.08-.83.26-.83.49S207.69,229.59,207.9,229.59Z"/><path class="cls-2" d="M210.15,226H211v3.32c0,.19.08.25.16.25h.11l.11.65a1.15,1.15,0,0,1-.44.07c-.61,0-.81-.39-.81-1Z"/><path class="cls-2" d="M213.21,227.16a1.26,1.26,0,0,1,1.27,1.43,1.79,1.79,0,0,1,0,.37h-1.78a.72.72,0,0,0,.77.65,1.19,1.19,0,0,0,.64-.2l.29.53a1.94,1.94,0,0,1-1.06.33,1.56,1.56,0,0,1-.1-3.12Zm.52,1.25c0-.34-.14-.58-.5-.58s-.52.19-.58.58Z"/><path class="cls-2" d="M216.7,228.29a.41.41,0,0,0-.47-.43,1.6,1.6,0,0,0-.79.27l-.31-.58a2.47,2.47,0,0,1,1.27-.39c.76,0,1.18.43,1.18,1.34v1.7h-.72l-.07-.31h0a1.31,1.31,0,0,1-.87.38.85.85,0,0,1-.88-.9C215,228.75,215.52,228.41,216.7,228.29Zm-.49,1.3a.66.66,0,0,0,.49-.25v-.52c-.63.08-.83.26-.83.49S216,229.59,216.21,229.59Z"/><path class="cls-2" d="M218.57,227.92h-.41v-.65l.46,0,.1-.79h.73v.79h.71v.69h-.71v1.19c0,.34.15.47.38.47a.83.83,0,0,0,.28-.06l.14.64a2.12,2.12,0,0,1-.66.11c-.74,0-1-.46-1-1.15Z"/><path class="cls-2" d="M222.08,227.16a1.56,1.56,0,1,1-1.45,1.56A1.46,1.46,0,0,1,222.08,227.16Zm0,2.4c.36,0,.55-.33.55-.85s-.19-.85-.55-.85-.55.33-.55.85S221.72,229.56,222.08,229.56Z"/><path class="cls-2" d="M224.25,227.23H225l.06.52h0a1,1,0,0,1,.85-.59.85.85,0,0,1,.35.06l-.14.76a1.1,1.1,0,0,0-.32,0,.74.74,0,0,0-.65.54v1.73h-.88Z"/><path class="cls-2" d="M226.68,226.33a.51.51,0,1,1,.51.46A.47.47,0,0,1,226.68,226.33Zm.07.9h.88v3h-.88Z"/><path class="cls-2" d="M228.36,229.73l1.25-1.81H228.5v-.69h2.21v.47l-1.25,1.82h1.29v.69h-2.39Z"/><path class="cls-2" d="M232.88,228.29a.41.41,0,0,0-.47-.43,1.6,1.6,0,0,0-.79.27l-.31-.58a2.47,2.47,0,0,1,1.27-.39c.76,0,1.18.43,1.18,1.34v1.7H233l-.07-.31h0a1.31,1.31,0,0,1-.87.38.85.85,0,0,1-.88-.9C231.2,228.75,231.7,228.41,232.88,228.29Zm-.49,1.3a.66.66,0,0,0,.49-.25v-.52c-.63.08-.83.26-.83.49S232.17,229.59,232.38,229.59Z"/><path class="cls-2" d="M236,227.16a1.2,1.2,0,0,1,.87.34l-.4.54a.64.64,0,0,0-.41-.17c-.43,0-.7.33-.7.85s.28.85.67.85a.86.86,0,0,0,.53-.22l.35.56a1.54,1.54,0,0,1-1,.37,1.43,1.43,0,0,1-1.47-1.56A1.49,1.49,0,0,1,236,227.16Z"/><path class="cls-2" d="M237.47,226.33a.51.51,0,1,1,.51.46A.47.47,0,0,1,237.47,226.33Zm.07.9h.88v3h-.88Z"/><path class="cls-2" d="M240.59,227.16a1.56,1.56,0,1,1-1.45,1.56A1.46,1.46,0,0,1,240.59,227.16Zm0,2.4c.36,0,.55-.33.55-.85s-.19-.85-.55-.85-.55.33-.55.85S240.23,229.56,240.59,229.56Zm.15-2.8h-.64l.53-.9h.85Z"/><path class="cls-2" d="M242.76,227.23h.72l.06.38h0a1.37,1.37,0,0,1,1-.45c.65,0,.92.46.92,1.2v1.85h-.88v-1.73c0-.43-.11-.56-.37-.56a.75.75,0,0,0-.55.29v2h-.88Z"/><path class="cls-2" d="M307,230.28h.5l.64,1.76.24.67h0l.23-.67.63-1.76h.49v3.28h-.4v-1.81c0-.29,0-.68.05-1h0l-.26.73-.63,1.72h-.24l-.63-1.72-.26-.73h0c0,.29,0,.68,0,1v1.81H307Z"/><path class="cls-2" d="M311.59,231.07a1.29,1.29,0,1,1-1.13,1.28A1.16,1.16,0,0,1,311.59,231.07Zm0,2.21c.42,0,.7-.37.7-.93s-.28-.94-.7-.94-.7.38-.7.94S311.17,233.28,311.59,233.28Z"/><path class="cls-2" d="M314.33,231.07a1,1,0,0,1,.68.28l0-.42V230h.42v3.56h-.34l0-.29h0a1.1,1.1,0,0,1-.74.34c-.61,0-1-.46-1-1.27A1.15,1.15,0,0,1,314.33,231.07Zm0,2.21a.82.82,0,0,0,.62-.33v-1.27a.85.85,0,0,0-.59-.26c-.39,0-.7.38-.7.93S313.94,233.27,314.37,233.27Z"/><path class="cls-2" d="M316.24,230.36a.29.29,0,0,1,.57,0,.29.29,0,0,1-.57,0Zm.08.77h.41v2.43h-.41Z"/><path class="cls-2" d="M318.74,230.33a.68.68,0,0,0-.27-.06c-.23,0-.34.16-.34.47v.38h.52v.34h-.52v2.1h-.41v-2.1h-.33v-.31l.33,0v-.38c0-.5.23-.81.71-.81a1.11,1.11,0,0,1,.41.08Z"/><path class="cls-2" d="M319.12,230.36a.29.29,0,0,1,.57,0,.29.29,0,0,1-.57,0Zm.08.77h.41v2.43h-.41Z"/><path class="cls-2" d="M321.51,231.07a1,1,0,0,1,.71.29l-.21.27a.74.74,0,0,0-.49-.22c-.44,0-.76.38-.76.94s.31.93.75.93a.87.87,0,0,0,.57-.25l.19.27a1.2,1.2,0,0,1-.79.31,1.14,1.14,0,0,1-1.14-1.27A1.18,1.18,0,0,1,321.51,231.07Z"/><path class="cls-2" d="M324.22,232c0-.31-.1-.61-.5-.61a1.3,1.3,0,0,0-.73.26l-.17-.29a1.8,1.8,0,0,1,1-.32c.6,0,.85.4.85,1v1.49h-.34l0-.29h0a1.32,1.32,0,0,1-.81.35.66.66,0,0,1-.72-.69C322.73,232.4,323.19,232.13,324.22,232Zm-.67,1.27a1,1,0,0,0,.67-.33v-.68c-.82.1-1.09.3-1.09.61A.37.37,0,0,0,323.56,233.29Z"/><path class="cls-2" d="M326.38,231.07a1,1,0,0,1,.68.28l0-.42V230h.42v3.56h-.34l0-.29h0a1.1,1.1,0,0,1-.74.34c-.61,0-1-.46-1-1.27A1.15,1.15,0,0,1,326.38,231.07Zm0,2.21a.82.82,0,0,0,.62-.33v-1.27a.85.85,0,0,0-.59-.26c-.39,0-.7.38-.7.93S326,233.27,326.42,233.27Z"/><path class="cls-2" d="M329.32,231.07a1.29,1.29,0,1,1-1.13,1.28A1.16,1.16,0,0,1,329.32,231.07Zm0,2.21c.42,0,.7-.37.7-.93s-.28-.94-.7-.94-.7.38-.7.94S328.9,233.28,329.32,233.28Z"/><path class="cls-2" d="M333.16,231.07a1,1,0,0,1,.68.28l0-.42V230h.42v3.56h-.34l0-.29h0a1.1,1.1,0,0,1-.74.34c-.61,0-1-.46-1-1.27A1.15,1.15,0,0,1,333.16,231.07Zm0,2.21a.82.82,0,0,0,.62-.33v-1.27a.85.85,0,0,0-.59-.26c-.39,0-.7.38-.7.93S332.78,233.27,333.2,233.27Z"/><path class="cls-2" d="M336.06,231.07c.62,0,1,.45,1,1.14a1.5,1.5,0,0,1,0,.23h-1.64a.81.81,0,0,0,.81.86,1.1,1.1,0,0,0,.61-.19l.15.27a1.44,1.44,0,0,1-.8.25,1.29,1.29,0,0,1-.08-2.55Zm.61,1.1c0-.5-.22-.77-.6-.77a.76.76,0,0,0-.7.77Z"/><path class="cls-2" d="M338.87,232.84a1.28,1.28,0,0,0,.91.41c.43,0,.69-.21.69-.54s-.24-.44-.55-.58l-.47-.21a.88.88,0,0,1,.37-1.72,1.34,1.34,0,0,1,1,.41l-.22.27a1.06,1.06,0,0,0-.75-.31c-.37,0-.62.18-.62.48s.29.44.55.54l.47.2a.91.91,0,0,1,.68.88,1,1,0,0,1-1.12.94,1.58,1.58,0,0,1-1.15-.49Z"/><path class="cls-2" d="M342.52,231.07a1.29,1.29,0,1,1-1.13,1.28A1.16,1.16,0,0,1,342.52,231.07Zm0,2.21c.42,0,.7-.37.7-.93s-.28-.94-.7-.94-.7.38-.7.94S342.1,233.28,342.52,233.28Z"/><path class="cls-2" d="M344.38,230h.41v3.1c0,.13.06.18.12.18H345l.06.31a.56.56,0,0,1-.24,0c-.31,0-.44-.19-.44-.55Z"/><path class="cls-2" d="M346.69,231.07a1.29,1.29,0,1,1-1.13,1.28A1.16,1.16,0,0,1,346.69,231.07Zm0,2.21c.42,0,.7-.37.7-.93s-.28-.94-.7-.94-.7.38-.7.94S346.28,233.28,346.69,233.28Z"/><path class="cls-2" d="M348.55,231.13h.34l0,.35h0a1.07,1.07,0,0,1,.76-.41.64.64,0,0,1,.67.46,1.15,1.15,0,0,1,.8-.46c.5,0,.74.33.74,1v1.54h-.41v-1.49c0-.46-.15-.65-.45-.65a.89.89,0,0,0-.61.38v1.76H350v-1.49c0-.46-.15-.65-.46-.65a.91.91,0,0,0-.61.38v1.76h-.41Z"/><path class="cls-2" d="M354.17,232c0-.31-.1-.61-.5-.61a1.3,1.3,0,0,0-.73.26l-.17-.29a1.8,1.8,0,0,1,1-.32c.6,0,.85.4.85,1v1.49h-.34l0-.29h0a1.32,1.32,0,0,1-.81.35.66.66,0,0,1-.72-.69C352.67,232.4,353.13,232.13,354.17,232Zm-.67,1.27a1,1,0,0,0,.67-.33v-.68c-.82.1-1.09.3-1.09.61A.37.37,0,0,0,353.5,233.29Z"/><path class="cls-2" d="M355.45,231.13h.34l0,.35h0a1.14,1.14,0,0,1,.82-.41c.51,0,.74.33.74,1v1.54H357v-1.49c0-.46-.14-.65-.46-.65s-.42.13-.67.38v1.76h-.41Z"/><path class="cls-2" d="M359.42,232.84a1.28,1.28,0,0,0,.91.41c.43,0,.69-.21.69-.54s-.24-.44-.55-.58l-.47-.21a.88.88,0,0,1,.37-1.72,1.34,1.34,0,0,1,1,.41l-.22.27a1.06,1.06,0,0,0-.75-.31c-.37,0-.62.18-.62.48s.29.44.55.54l.47.2a.91.91,0,0,1,.68.88,1,1,0,0,1-1.12.94,1.58,1.58,0,0,1-1.15-.49Z"/><path class="cls-2" d="M362.33,233a.32.32,0,1,1-.3.32A.3.3,0,0,1,362.33,233Z"/><path class="cls-2" d="M363.48,230.28h.43l1.19,2.06.36.68h0c0-.33-.05-.7-.05-1v-1.7h.4v3.28h-.43l-1.19-2.07-.36-.68h0c0,.33,0,.68,0,1v1.72h-.4Z"/><path class="cls-2" d="M367.9,230.28h1.89v.35h-1.47v1h1.24V232h-1.24v1.19h1.52v.36H367.9Z"/><path class="cls-2" d="M370.57,231.13h.34l0,.35h0a1.15,1.15,0,0,1,.82-.41c.51,0,.74.33.74,1v1.54h-.41v-1.49c0-.46-.14-.65-.46-.65s-.42.13-.67.38v1.76h-.41Z"/><path class="cls-2" d="M373.57,233.47v0a.45.45,0,0,1-.22-.4.57.57,0,0,1,.27-.45v0a.86.86,0,0,1,.6-1.52,1,1,0,0,1,.35.06h.85v.32h-.5a.71.71,0,0,1,.2.5.83.83,0,0,1-.89.85.86.86,0,0,1-.37-.08.37.37,0,0,0-.15.29c0,.16.1.27.43.27h.47c.57,0,.85.17.85.58s-.48.84-1.23.84c-.6,0-1-.24-1-.66A.7.7,0,0,1,373.57,233.47Zm.71.92c.47,0,.77-.24.77-.5s-.18-.3-.49-.3h-.42a1.17,1.17,0,0,1-.32,0,.51.51,0,0,0-.25.41C373.58,234.23,373.84,234.4,374.29,234.4Zm.46-2.46a.52.52,0,1,0-1,0,.52.52,0,1,0,1,0Z"/><path class="cls-2" d="M376,230h.41v3.1c0,.13.06.18.12.18h.09l.06.31a.56.56,0,0,1-.24,0c-.31,0-.44-.19-.44-.55Z"/><path class="cls-2" d="M378.52,232.88a.63.63,0,0,0,.57.37c.35,0,.53-.2.53-.7v-2.28H380v2.32c0,.57-.26,1-.91,1a1,1,0,0,1-.9-.53Z"/><path class="cls-2" d="M382.09,230.28h.5l.64,1.76.24.67h0l.23-.67.63-1.76h.49v3.28h-.4v-1.81c0-.29,0-.68.06-1h0l-.26.73-.63,1.72h-.24l-.63-1.72-.26-.73h0c0,.29.05.68.05,1v1.81h-.39Z"/><path class="cls-2" d="M386.68,231.07c.62,0,1,.45,1,1.14a1.5,1.5,0,0,1,0,.23H386a.81.81,0,0,0,.81.86,1.1,1.1,0,0,0,.61-.19l.15.27a1.44,1.44,0,0,1-.8.25,1.29,1.29,0,0,1-.08-2.55Zm.61,1.1c0-.5-.22-.77-.6-.77a.76.76,0,0,0-.7.77Z"/><path class="cls-2" d="M389.22,231.07a1,1,0,0,1,.68.28l0-.42V230h.42v3.56H390l0-.29h0a1.1,1.1,0,0,1-.74.34c-.61,0-1-.46-1-1.27A1.15,1.15,0,0,1,389.22,231.07Zm0,2.21a.82.82,0,0,0,.62-.33v-1.27a.85.85,0,0,0-.59-.26c-.39,0-.7.38-.7.93S388.84,233.27,389.26,233.27Z"/><path class="cls-2" d="M391.43,233a.32.32,0,1,1-.3.32A.3.3,0,0,1,391.43,233Z"/><path class="cls-2" d="M393.45,233.31c1-1,1.5-1.53,1.5-2a.57.57,0,0,0-.61-.63.94.94,0,0,0-.68.39l-.24-.24a1.25,1.25,0,0,1,1-.49.89.89,0,0,1,1,.94c0,.6-.55,1.2-1.3,2l.54,0h.93v.36h-2.06Z"/><path class="cls-2" d="M396,232c0-1.07.39-1.65,1-1.65s1,.58,1,1.65-.39,1.67-1,1.67S396,233,396,232Zm1.65,0c0-.94-.25-1.32-.62-1.32s-.63.38-.63,1.32.25,1.34.63,1.34S397.69,232.89,397.69,232Z"/><path class="cls-2" d="M398.63,232c0-1.07.39-1.65,1-1.65s1,.58,1,1.65-.39,1.67-1,1.67S398.63,233,398.63,232Zm1.65,0c0-.94-.25-1.32-.62-1.32S399,231,399,232s.25,1.34.63,1.34S400.27,232.89,400.27,232Z"/><path class="cls-2" d="M401.31,232.91a1.09,1.09,0,0,0,.81.37.69.69,0,0,0,.7-.73.64.64,0,0,0-.68-.7.9.9,0,0,0-.55.2l-.22-.14.11-1.54h1.6v.36h-1.24l-.09.95a1,1,0,0,1,.49-.13.92.92,0,0,1,1,1,1,1,0,0,1-1.08,1.08,1.4,1.4,0,0,1-1-.43Z"/><path class="cls-2" d="M385.76,223.13h.34l0,.35h0a1.15,1.15,0,0,1,.82-.41c.51,0,.74.33.74,1v1.54h-.41v-1.49c0-.46-.14-.65-.46-.65s-.42.13-.67.38v1.76h-.41Z"/><path class="cls-2" d="M388.81,223.19a.31.31,0,1,1-.3.32A.3.3,0,0,1,388.81,223.19Zm0,1.8a.32.32,0,1,1-.3.32A.3.3,0,0,1,388.81,225Z"/><path class="cls-2" d="M389.92,225.22h.73v-2.35h-.58v-.27a1.89,1.89,0,0,0,.68-.24h.32v2.85h.66v.34h-1.8Z"/><path class="cls-2" d="M394.45,224.68H394v.88h-.39v-.88h-1.44v-.27l1.37-2H394v2h.44Zm-.83-.33v-.93c0-.17,0-.45,0-.62h0c-.08.16-.17.3-.26.45l-.75,1.09Z"/><path class="cls-2" d="M395.31,225a.32.32,0,1,1-.3.32A.3.3,0,0,1,395.31,225Z"/><path class="cls-2" d="M398,222.9a.7.7,0,0,0-.53-.25c-.45,0-.82.35-.84,1.36a1,1,0,0,1,.75-.4.86.86,0,0,1,.91,1,1,1,0,0,1-.95,1c-.63,0-1.1-.51-1.1-1.54,0-1.28.58-1.78,1.22-1.78a1,1,0,0,1,.77.34Zm-.1,1.69c0-.42-.2-.68-.59-.68a.87.87,0,0,0-.67.42c0,.62.3,1,.7,1S397.92,225,397.92,224.59Z"/><path class="cls-2" d="M398.82,224c0-1.07.39-1.65,1-1.65s1,.58,1,1.65-.39,1.67-1,1.67S398.82,225,398.82,224Zm1.65,0c0-.94-.25-1.32-.62-1.32s-.63.38-.63,1.32.25,1.34.63,1.34S400.47,224.89,400.47,224Z"/><path class="cls-2" d="M401.67,225a.7.7,0,0,0,.53.25c.45,0,.83-.35.85-1.37a1,1,0,0,1-.75.41.86.86,0,0,1-.91-1,1,1,0,0,1,.94-1c.63,0,1.1.51,1.1,1.54,0,1.28-.58,1.78-1.22,1.78a1,1,0,0,1-.77-.33Zm1.36-1.44c-.06-.62-.3-1-.71-1s-.56.28-.56.7.2.68.59.68A.86.86,0,0,0,403,223.58Z"/></g></svg>