<svg xmlns="http://www.w3.org/2000/svg" viewBox="0 0 262 238"><defs><style>.cls-1,.cls-3,.cls-4{fill:none;}.cls-1{stroke:#4faefc;}.cls-2{fill:#888;}.cls-3{stroke:#7c7c7c;}.cls-4{stroke:#289de9;}</style></defs><title>pzifer-1</title><g id="grafico"><line class="cls-1" x1="38.5" y1="25.5" x2="38.5" y2="203"/><line class="cls-1" x1="38.25" y1="202.5" x2="237.5" y2="202.5"/></g><g id="labels-horizontal"><path class="cls-2" d="M15.9,202.74c0-1.5.54-2.3,1.44-2.3s1.43.81,1.43,2.3-.54,2.33-1.43,2.33S15.9,204.24,15.9,202.74Zm2.3,0c0-1.31-.35-1.84-.87-1.84s-.87.53-.87,1.84.35,1.87.88,1.87S18.21,204,18.21,202.74Z"/><path class="cls-2" d="M15.87,139.84C17.22,138.5,18,137.7,18,137a.79.79,0,0,0-.85-.87,1.31,1.31,0,0,0-1,.54l-.33-.33a1.75,1.75,0,0,1,1.35-.68,1.24,1.24,0,0,1,1.34,1.32c0,.84-.76,1.67-1.82,2.78.24,0,.52,0,.75,0h1.3v.5H15.87Z"/><path class="cls-2" d="M16.15,172.11h1v-3.29h-.81v-.37a2.63,2.63,0,0,0,.95-.33h.44v4h.92v.48H16.15Z"/><path class="cls-2" d="M16.07,106.86a1.51,1.51,0,0,0,1.14.53.83.83,0,0,0,.93-.82c0-.53-.37-.89-1.43-.89v-.44c1,0,1.27-.36,1.27-.83a.69.69,0,0,0-.77-.71,1.35,1.35,0,0,0-1,.46l-.31-.36a1.84,1.84,0,0,1,1.28-.56c.78,0,1.34.41,1.34,1.13a1.11,1.11,0,0,1-.81,1.06v0a1.15,1.15,0,0,1,1,1.13,1.32,1.32,0,0,1-1.47,1.27,1.9,1.9,0,0,1-1.47-.63Z"/><path class="cls-2" d="M18.88,74.15h-.61v1.23h-.55V74.15h-2v-.38l1.91-2.86h.64v2.77h.61Zm-1.16-.46V72.39c0-.24,0-.62,0-.86h0c-.11.22-.24.41-.37.63l-1,1.53Z"/><path class="cls-2" d="M16,42.08a1.52,1.52,0,0,0,1.13.51,1,1,0,0,0,1-1,.9.9,0,0,0-1-1,1.26,1.26,0,0,0-.76.27l-.31-.2.15-2.15h2.23V39H16.78l-.12,1.32a1.36,1.36,0,0,1,.69-.18,1.29,1.29,0,0,1,1.39,1.4,1.46,1.46,0,0,1-1.51,1.51,2,2,0,0,1-1.46-.61Z"/><path class="cls-2" d="M37.52,211.35c0-1.28.46-2,1.23-2s1.22.69,1.22,2-.46,2-1.22,2S37.52,212.63,37.52,211.35Zm2,0c0-1.12-.3-1.58-.74-1.58s-.75.46-.75,1.58.3,1.6.75,1.6S39.5,212.47,39.5,211.35Z"/><path class="cls-2" d="M99.18,212.86h.88V210h-.7v-.32a2.27,2.27,0,0,0,.81-.28h.38v3.42h.79v.41H99.18Z"/><path class="cls-2" d="M102.07,211.35c0-1.28.46-2,1.23-2s1.22.69,1.22,2-.46,2-1.22,2S102.07,212.63,102.07,211.35Zm2,0c0-1.12-.3-1.58-.74-1.58s-.75.46-.75,1.58.3,1.6.75,1.6S104,212.47,104,211.35Z"/><path class="cls-2" d="M162,213c1.15-1.15,1.8-1.83,1.8-2.45a.68.68,0,0,0-.73-.75,1.13,1.13,0,0,0-.82.46l-.28-.28a1.5,1.5,0,0,1,1.16-.58,1.06,1.06,0,0,1,1.15,1.13c0,.72-.65,1.43-1.56,2.38.21,0,.44,0,.64,0h1.11v.43H162Z"/><path class="cls-2" d="M165.07,211.35c0-1.28.46-2,1.23-2s1.22.69,1.22,2-.46,2-1.22,2S165.07,212.63,165.07,211.35Zm2,0c0-1.12-.3-1.58-.74-1.58s-.75.46-.75,1.58.3,1.6.75,1.6S167,212.47,167,211.35Z"/><path class="cls-2" d="M225.12,212.48a1.3,1.3,0,0,0,1,.46.71.71,0,0,0,.79-.7c0-.46-.31-.76-1.22-.76v-.38c.82,0,1.09-.31,1.09-.71a.59.59,0,0,0-.66-.61,1.16,1.16,0,0,0-.82.39l-.26-.31a1.57,1.57,0,0,1,1.1-.48c.67,0,1.15.35,1.15,1a1,1,0,0,1-.7.91v0a1,1,0,0,1,.83,1,1.13,1.13,0,0,1-1.26,1.09,1.62,1.62,0,0,1-1.26-.54Z"/><path class="cls-2" d="M228.07,211.35c0-1.28.46-2,1.23-2s1.22.69,1.22,2-.46,2-1.22,2S228.07,212.63,228.07,211.35Zm2,0c0-1.12-.3-1.58-.74-1.58s-.75.46-.75,1.58.3,1.6.75,1.6S230,212.47,230,211.35Z"/><path class="cls-2" d="M6.22,13.23H5.14v-.74h3v.74H7.11v3.17H6.22Z"/><path class="cls-2" d="M10,14.48A.41.41,0,0,0,9.55,14a1.6,1.6,0,0,0-.79.27l-.31-.58a2.47,2.47,0,0,1,1.27-.39c.76,0,1.18.43,1.18,1.34v1.7h-.72l-.07-.31h0a1.31,1.31,0,0,1-.87.38.85.85,0,0,1-.88-.9C8.34,14.94,8.84,14.6,10,14.48Zm-.49,1.3a.67.67,0,0,0,.49-.25V15c-.63.08-.83.26-.83.49S9.31,15.78,9.52,15.78Z"/><path class="cls-2" d="M11.9,15.5a1.28,1.28,0,0,0,.77.31c.26,0,.38-.1.38-.25s-.3-.29-.61-.41-.79-.38-.79-.88.45-.93,1.14-.93a1.71,1.71,0,0,1,1.05.38l-.4.53a1.1,1.1,0,0,0-.63-.25c-.23,0-.33.08-.33.23s.28.26.58.38.8.35.8.89-.43,1-1.22,1a1.92,1.92,0,0,1-1.14-.41Z"/><path class="cls-2" d="M16.11,14.48a.41.41,0,0,0-.47-.43,1.6,1.6,0,0,0-.79.27l-.31-.58a2.46,2.46,0,0,1,1.27-.39c.76,0,1.18.43,1.18,1.34v1.7h-.72l-.07-.31h0a1.31,1.31,0,0,1-.87.38.85.85,0,0,1-.88-.9C14.43,14.94,14.93,14.6,16.11,14.48Zm-.49,1.3a.66.66,0,0,0,.49-.25V15c-.63.08-.83.26-.83.49S15.4,15.78,15.61,15.78Z"/><path class="cls-2" d="M20.79,14.48a.41.41,0,0,0-.47-.43,1.6,1.6,0,0,0-.79.27l-.31-.58a2.46,2.46,0,0,1,1.27-.39c.76,0,1.18.43,1.18,1.34v1.7h-.72l-.07-.31h0a1.31,1.31,0,0,1-.87.38.85.85,0,0,1-.88-.9C19.11,14.94,19.61,14.6,20.79,14.48Zm-.49,1.3a.66.66,0,0,0,.49-.25V15c-.63.08-.83.26-.83.49S20.08,15.78,20.29,15.78Z"/><path class="cls-2" d="M23.91,13.35a1.2,1.2,0,0,1,.87.34l-.4.55a.64.64,0,0,0-.41-.17c-.43,0-.7.33-.7.85s.28.85.67.85a.86.86,0,0,0,.53-.22l.35.56a1.54,1.54,0,0,1-1,.37,1.43,1.43,0,0,1-1.47-1.56A1.49,1.49,0,0,1,23.91,13.35Z"/><path class="cls-2" d="M25.42,13.42h.88v1.73c0,.43.11.56.37.56s.35-.1.53-.33v-2h.88v3h-.72L27.3,16h0a1.16,1.16,0,0,1-.94.49c-.65,0-.92-.46-.92-1.2Z"/><path class="cls-2" d="M29,13.42h.72l.06.38h0a1.25,1.25,0,0,1,.9-.46.82.82,0,0,1,.82.5,1.3,1.3,0,0,1,.94-.5c.64,0,.93.46.93,1.2v1.85h-.88V14.66c0-.43-.11-.56-.37-.56a.79.79,0,0,0-.51.29v2h-.88V14.66c0-.43-.11-.56-.37-.56a.78.78,0,0,0-.5.29v2H29Z"/><path class="cls-2" d="M34.2,13.42h.88v1.73c0,.43.11.56.37.56s.35-.1.53-.33v-2h.88v3h-.72L36.08,16h0a1.16,1.16,0,0,1-.94.49c-.65,0-.92-.46-.92-1.2Z"/><path class="cls-2" d="M37.75,12.19h.88v3.32c0,.19.08.25.16.25h.11l.11.65a1.15,1.15,0,0,1-.44.07c-.61,0-.81-.4-.81-1Z"/><path class="cls-2" d="M41.15,14.48a.41.41,0,0,0-.47-.43,1.6,1.6,0,0,0-.79.27l-.31-.58a2.46,2.46,0,0,1,1.27-.39c.76,0,1.18.43,1.18,1.34v1.7h-.72l-.07-.31h0a1.31,1.31,0,0,1-.87.38.85.85,0,0,1-.88-.9C39.48,14.94,40,14.6,41.15,14.48Zm-.49,1.3a.66.66,0,0,0,.49-.25V15c-.63.08-.83.26-.83.49S40.45,15.78,40.66,15.78Z"/><path class="cls-2" d="M44,13.35a1,1,0,0,1,.73.31l0-.46v-1h.88v4.2h-.72l-.06-.29h0a1.18,1.18,0,0,1-.79.37c-.74,0-1.22-.59-1.22-1.56A1.39,1.39,0,0,1,44,13.35Zm.21,2.4a.56.56,0,0,0,.49-.27V14.26a.71.71,0,0,0-.49-.19c-.28,0-.53.26-.53.83S43.85,15.75,44.19,15.75Z"/><path class="cls-2" d="M48,14.48a.41.41,0,0,0-.47-.43,1.6,1.6,0,0,0-.79.27l-.31-.58a2.46,2.46,0,0,1,1.27-.39c.76,0,1.18.43,1.18,1.34v1.7h-.72l-.07-.31h0a1.31,1.31,0,0,1-.87.38.85.85,0,0,1-.88-.9C46.35,14.94,46.84,14.6,48,14.48Zm-.49,1.3a.66.66,0,0,0,.49-.25V15c-.63.08-.83.26-.83.49S47.32,15.78,47.53,15.78Z"/><path class="cls-2" d="M52.21,13.35a1,1,0,0,1,.73.31l0-.46v-1h.88v4.2h-.72L53,16.1h0a1.18,1.18,0,0,1-.79.37c-.74,0-1.22-.59-1.22-1.56A1.39,1.39,0,0,1,52.21,13.35Zm.21,2.4a.56.56,0,0,0,.49-.27V14.26a.71.71,0,0,0-.49-.19c-.28,0-.53.26-.53.83S52.08,15.75,52.42,15.75Z"/><path class="cls-2" d="M55.92,13.35a1.26,1.26,0,0,1,1.27,1.43,1.78,1.78,0,0,1,0,.37H55.36a.72.72,0,0,0,.77.65,1.2,1.2,0,0,0,.64-.2l.29.53a2,2,0,0,1-1.06.34,1.45,1.45,0,0,1-1.5-1.56A1.46,1.46,0,0,1,55.92,13.35Zm.52,1.25c0-.34-.14-.58-.5-.58s-.52.19-.58.58Z"/><path class="cls-2" d="M60.5,13.35a1.26,1.26,0,0,1,1.26,1.43,1.78,1.78,0,0,1,0,.37H59.95a.72.72,0,0,0,.77.65,1.2,1.2,0,0,0,.64-.2l.29.53a1.94,1.94,0,0,1-1.05.34,1.45,1.45,0,0,1-1.51-1.56A1.46,1.46,0,0,1,60.5,13.35ZM61,14.6c0-.34-.14-.58-.5-.58s-.52.19-.58.58Z"/><path class="cls-2" d="M62.14,13.42H63l.38,1.4c.08.29.16.61.23.92h0c.07-.31.15-.62.23-.92l.39-1.4h.85l-1,3h-1Z"/><path class="cls-2" d="M66.89,13.35a1.26,1.26,0,0,1,1.26,1.43,1.79,1.79,0,0,1,0,.37H66.34a.72.72,0,0,0,.77.65,1.2,1.2,0,0,0,.64-.2l.29.53a2,2,0,0,1-1.05.34,1.45,1.45,0,0,1-1.51-1.56A1.46,1.46,0,0,1,66.89,13.35Zm.52,1.25c0-.34-.14-.58-.5-.58s-.52.19-.58.58Z"/><path class="cls-2" d="M68.88,13.42h.72l.06.38h0a1.37,1.37,0,0,1,1-.45c.65,0,.92.46.92,1.2v1.85h-.88V14.66c0-.43-.11-.56-.37-.56a.75.75,0,0,0-.55.29v2h-.88Z"/><path class="cls-2" d="M72.55,14.11h-.41v-.65l.46,0,.1-.79h.73v.79h.71v.69h-.71V15.3c0,.34.15.47.38.47a.83.83,0,0,0,.28-.06l.14.64a2.13,2.13,0,0,1-.66.11c-.74,0-1-.46-1-1.15Z"/><path class="cls-2" d="M76.06,13.35a1.46,1.46,0,0,1,1.45,1.56,1.45,1.45,0,1,1-2.9,0A1.46,1.46,0,0,1,76.06,13.35Zm0,2.4c.36,0,.55-.33.55-.85s-.19-.85-.55-.85-.55.33-.55.85S75.69,15.75,76.06,15.75Z"/><path class="cls-2" d="M78.33,15.5a1.28,1.28,0,0,0,.77.31c.26,0,.38-.1.38-.25s-.3-.29-.61-.41-.79-.38-.79-.88.45-.93,1.14-.93a1.71,1.71,0,0,1,1,.38l-.4.53a1.09,1.09,0,0,0-.63-.25c-.23,0-.34.08-.34.23s.28.26.58.38.8.35.8.89-.43,1-1.22,1a1.92,1.92,0,0,1-1.14-.41Z"/><path class="cls-2" d="M99.35,221.3h1.1a2,2,0,0,1,.05,3.91H99.35Zm1.06,3.2c.66,0,1.11-.32,1.11-1.26s-.45-1.22-1.11-1.22h-.17v2.48Z"/><path class="cls-2" d="M103.79,221.76h-.64l.53-.9h.85Zm-.59.47h.88v3h-.88Z"/><path class="cls-2" d="M106.54,223.29a.41.41,0,0,0-.47-.43,1.6,1.6,0,0,0-.79.27l-.31-.58a2.46,2.46,0,0,1,1.27-.39c.76,0,1.18.43,1.18,1.34v1.7h-.72l-.07-.31h0a1.31,1.31,0,0,1-.87.38.85.85,0,0,1-.88-.9C104.86,223.75,105.36,223.41,106.54,223.29Zm-.49,1.3a.66.66,0,0,0,.49-.25v-.52c-.63.08-.83.26-.83.49S105.83,224.59,106,224.59Z"/><path class="cls-2" d="M108.42,224.31a1.28,1.28,0,0,0,.77.31c.26,0,.38-.1.38-.25s-.3-.29-.61-.41-.79-.38-.79-.88.45-.93,1.14-.93a1.71,1.71,0,0,1,1.05.38l-.4.53a1.1,1.1,0,0,0-.63-.25c-.23,0-.33.08-.33.23s.28.26.58.38.8.35.8.89-.43,1-1.22,1a1.92,1.92,0,0,1-1.14-.41Z"/><path class="cls-2" d="M113.5,222.16a1,1,0,0,1,.73.31l0-.46v-1h.88v4.2h-.72l-.06-.29h0a1.18,1.18,0,0,1-.79.37c-.74,0-1.22-.59-1.22-1.56A1.39,1.39,0,0,1,113.5,222.16Zm.21,2.4a.56.56,0,0,0,.49-.27v-1.22a.71.71,0,0,0-.49-.19c-.28,0-.53.26-.53.83S113.37,224.56,113.71,224.56Z"/><path class="cls-2" d="M117.2,222.16a1.26,1.26,0,0,1,1.27,1.43,1.78,1.78,0,0,1,0,.37h-1.78a.72.72,0,0,0,.77.65,1.2,1.2,0,0,0,.64-.2l.29.53a2,2,0,0,1-1.06.34,1.56,1.56,0,0,1-.1-3.12Zm.52,1.25c0-.34-.14-.58-.5-.58s-.52.19-.58.58Z"/><path class="cls-2" d="M119.33,224.31a1.28,1.28,0,0,0,.77.31c.26,0,.38-.1.38-.25s-.3-.29-.61-.41-.79-.38-.79-.88.45-.93,1.14-.93a1.71,1.71,0,0,1,1,.38l-.4.53a1.1,1.1,0,0,0-.63-.25c-.23,0-.34.08-.34.23s.28.26.58.38.8.35.8.89-.43,1-1.22,1a1.92,1.92,0,0,1-1.14-.41Z"/><path class="cls-2" d="M123,222.16a1,1,0,0,1,.73.31l0-.46v-1h.88v4.2h-.72l-.06-.29h0a1.17,1.17,0,0,1-.79.37c-.74,0-1.22-.59-1.22-1.56A1.39,1.39,0,0,1,123,222.16Zm.21,2.4a.56.56,0,0,0,.49-.27v-1.22a.71.71,0,0,0-.49-.19c-.28,0-.53.26-.53.83S122.92,224.56,123.26,224.56Z"/><path class="cls-2" d="M126.75,222.16a1.26,1.26,0,0,1,1.26,1.43,1.79,1.79,0,0,1,0,.37H126.2a.72.72,0,0,0,.77.65,1.2,1.2,0,0,0,.64-.2l.29.53a2,2,0,0,1-1.05.34,1.56,1.56,0,0,1-.1-3.12Zm.52,1.25c0-.34-.14-.58-.5-.58s-.52.19-.58.58Z"/><path class="cls-2" d="M130.1,221H131v3.32c0,.19.08.25.16.25h.11l.11.65a1.15,1.15,0,0,1-.44.07c-.61,0-.81-.4-.81-1Z"/><path class="cls-2" d="M133.5,223.29a.41.41,0,0,0-.47-.43,1.6,1.6,0,0,0-.79.27l-.31-.58a2.46,2.46,0,0,1,1.27-.39c.76,0,1.18.43,1.18,1.34v1.7h-.72l-.07-.31h0a1.31,1.31,0,0,1-.87.38.85.85,0,0,1-.88-.9C131.83,223.75,132.32,223.41,133.5,223.29Zm-.49,1.3a.66.66,0,0,0,.49-.25v-.52c-.63.08-.83.26-.83.49S132.8,224.59,133,224.59Z"/><path class="cls-2" d="M136.61,222.23h.72l.06.52h0a1,1,0,0,1,.85-.59.85.85,0,0,1,.35.06l-.14.76a1.1,1.1,0,0,0-.32,0,.74.74,0,0,0-.65.55v1.73h-.88Z"/><path class="cls-2" d="M140.51,223.29a.41.41,0,0,0-.47-.43,1.6,1.6,0,0,0-.79.27l-.31-.58a2.47,2.47,0,0,1,1.27-.39c.76,0,1.18.43,1.18,1.34v1.7h-.72l-.07-.31h0a1.31,1.31,0,0,1-.87.38.85.85,0,0,1-.88-.9C138.83,223.75,139.33,223.41,140.51,223.29Zm-.49,1.3a.67.67,0,0,0,.49-.25v-.52c-.63.08-.83.26-.83.49S139.81,224.59,140,224.59Z"/><path class="cls-2" d="M142.26,222.23H143l.06.38h0a1.37,1.37,0,0,1,1-.45c.65,0,.92.46.92,1.2v1.85h-.88v-1.73c0-.43-.11-.56-.37-.56a.75.75,0,0,0-.55.29v2h-.88Z"/><path class="cls-2" d="M146.89,222.16a1,1,0,0,1,.73.31l0-.46v-1h.88v4.2h-.72l-.06-.29h0a1.18,1.18,0,0,1-.79.37c-.74,0-1.22-.59-1.22-1.56A1.39,1.39,0,0,1,146.89,222.16Zm.21,2.4a.56.56,0,0,0,.49-.27v-1.22a.71.71,0,0,0-.49-.19c-.28,0-.53.26-.53.83S146.75,224.56,147.1,224.56Z"/><path class="cls-2" d="M150.63,222.16a1.56,1.56,0,1,1-1.45,1.56A1.46,1.46,0,0,1,150.63,222.16Zm0,2.4c.36,0,.55-.33.55-.85s-.19-.85-.55-.85-.54.33-.54.85S150.27,224.56,150.63,224.56Z"/><path class="cls-2" d="M152.8,222.23h.72l.06.38h0a1.25,1.25,0,0,1,.9-.46.82.82,0,0,1,.82.5,1.3,1.3,0,0,1,.94-.5c.64,0,.93.46.93,1.2v1.85h-.88v-1.73c0-.43-.11-.56-.37-.56a.79.79,0,0,0-.51.29v2h-.88v-1.73c0-.43-.11-.56-.37-.56a.78.78,0,0,0-.5.29v2h-.88Z"/><path class="cls-2" d="M158,221.33a.51.51,0,1,1,.51.46A.47.47,0,0,1,158,221.33Zm.07.9h.88v3h-.88Z"/><path class="cls-2" d="M159.67,224.73l1.25-1.81H159.8v-.69H162v.47l-1.25,1.82h1.29v.69h-2.39Z"/><path class="cls-2" d="M164.18,223.29a.41.41,0,0,0-.47-.43,1.6,1.6,0,0,0-.79.27l-.31-.58a2.47,2.47,0,0,1,1.27-.39c.76,0,1.18.43,1.18,1.34v1.7h-.72l-.07-.31h0a1.31,1.31,0,0,1-.87.38.85.85,0,0,1-.88-.9C162.51,223.75,163,223.41,164.18,223.29Zm-.49,1.3a.67.67,0,0,0,.49-.25v-.52c-.63.08-.83.26-.83.49S163.48,224.59,163.69,224.59Z"/><path class="cls-2" d="M167.31,222.16a1.2,1.2,0,0,1,.87.34l-.4.55a.64.64,0,0,0-.41-.17c-.43,0-.7.33-.7.85s.28.85.67.85a.86.86,0,0,0,.53-.22l.35.56a1.54,1.54,0,0,1-1,.37,1.43,1.43,0,0,1-1.47-1.56A1.5,1.5,0,0,1,167.31,222.16Z"/><path class="cls-2" d="M168.78,221.33a.51.51,0,1,1,.51.46A.47.47,0,0,1,168.78,221.33Zm.07.9h.88v3h-.88Z"/><path class="cls-2" d="M171.9,222.16a1.56,1.56,0,1,1-1.45,1.56A1.46,1.46,0,0,1,171.9,222.16Zm0,2.4c.36,0,.55-.33.55-.85s-.19-.85-.55-.85-.54.33-.54.85S171.53,224.56,171.9,224.56Zm.15-2.8h-.64l.53-.9h.85Z"/><path class="cls-2" d="M174.07,222.23h.72l.06.38h0a1.37,1.37,0,0,1,1-.45c.65,0,.92.46.92,1.2v1.85h-.88v-1.73c0-.43-.12-.56-.37-.56a.75.75,0,0,0-.55.29v2h-.88Z"/><path class="cls-2" d="M133.66,13.16h.5l.63,1.76.24.67h0l.23-.67.63-1.76h.49v3.28H136V14.64c0-.29,0-.68.05-1h0l-.26.73-.63,1.72h-.24l-.63-1.72-.26-.73h0c0,.29,0,.68,0,1v1.81h-.39Z"/><path class="cls-2" d="M138.29,14a1.16,1.16,0,0,1,1.13,1.28,1.13,1.13,0,1,1-2.25,0A1.16,1.16,0,0,1,138.29,14Zm0,2.21c.42,0,.7-.38.7-.93s-.28-.94-.7-.94-.7.38-.7.94S137.88,16.17,138.29,16.17Z"/><path class="cls-2" d="M141,14a1,1,0,0,1,.68.28l0-.42v-.94h.42v3.56h-.34l0-.29h0a1.1,1.1,0,0,1-.74.35c-.61,0-1-.46-1-1.27A1.15,1.15,0,0,1,141,14Zm0,2.21a.82.82,0,0,0,.62-.34V14.55a.84.84,0,0,0-.59-.26c-.39,0-.7.38-.7.93S140.64,16.16,141.07,16.16Z"/><path class="cls-2" d="M142.94,13.25a.29.29,0,0,1,.57,0,.29.29,0,0,1-.57,0ZM143,14h.41v2.43H143Z"/><path class="cls-2" d="M145.44,13.22a.68.68,0,0,0-.27-.06c-.23,0-.34.16-.34.47V14h.52v.34h-.52v2.1h-.41v-2.1h-.33V14l.33,0v-.38c0-.5.22-.81.71-.81a1.08,1.08,0,0,1,.41.08Z"/><path class="cls-2" d="M145.82,13.25a.29.29,0,0,1,.57,0,.29.29,0,0,1-.57,0Zm.08.77h.41v2.43h-.41Z"/><path class="cls-2" d="M148.21,14a1,1,0,0,1,.71.29l-.21.27a.73.73,0,0,0-.49-.22c-.44,0-.76.38-.76.94s.31.93.75.93a.87.87,0,0,0,.57-.25l.18.27a1.21,1.21,0,0,1-.79.32A1.14,1.14,0,0,1,147,15.23,1.18,1.18,0,0,1,148.21,14Z"/><path class="cls-2" d="M150.93,14.9c0-.31-.11-.61-.5-.61a1.31,1.31,0,0,0-.73.26l-.17-.29a1.8,1.8,0,0,1,1-.32c.6,0,.85.4.85,1v1.49H151l0-.29h0a1.32,1.32,0,0,1-.81.35.66.66,0,0,1-.72-.69C149.43,15.28,149.89,15,150.93,14.9Zm-.67,1.27a1,1,0,0,0,.67-.33v-.68c-.82.1-1.09.3-1.09.61A.37.37,0,0,0,150.26,16.17Z"/><path class="cls-2" d="M153.08,14a1,1,0,0,1,.68.28l0-.42v-.94h.42v3.56h-.34l0-.29h0a1.1,1.1,0,0,1-.74.35c-.61,0-1-.46-1-1.27A1.15,1.15,0,0,1,153.08,14Zm0,2.21a.82.82,0,0,0,.62-.34V14.55a.84.84,0,0,0-.59-.26c-.39,0-.7.38-.7.93S152.7,16.16,153.13,16.16Z"/><path class="cls-2" d="M156,14a1.16,1.16,0,0,1,1.13,1.28,1.13,1.13,0,1,1-2.25,0A1.16,1.16,0,0,1,156,14Zm0,2.21c.42,0,.7-.38.7-.93s-.28-.94-.7-.94-.7.38-.7.94S155.6,16.17,156,16.17Z"/><path class="cls-2" d="M159.86,14a1,1,0,0,1,.68.28l0-.42v-.94h.42v3.56h-.34l0-.29h0a1.1,1.1,0,0,1-.74.35c-.61,0-1-.46-1-1.27A1.15,1.15,0,0,1,159.86,14Zm0,2.21a.82.82,0,0,0,.62-.34V14.55a.85.85,0,0,0-.59-.26c-.39,0-.7.38-.7.93S159.48,16.16,159.9,16.16Z"/><path class="cls-2" d="M162.76,14c.62,0,1,.45,1,1.14a1.5,1.5,0,0,1,0,.23h-1.64a.81.81,0,0,0,.81.86,1.1,1.1,0,0,0,.61-.19l.15.27a1.45,1.45,0,0,1-.8.25,1.16,1.16,0,0,1-1.17-1.27A1.17,1.17,0,0,1,162.76,14Zm.61,1.1c0-.5-.22-.77-.6-.77a.76.76,0,0,0-.7.77Z"/><path class="cls-2" d="M165.56,13.16h1c.73,0,1.21.25,1.21,1s-.5,1-1.21,1H166v1.3h-.42Zm1,1.64c.58,0,.85-.21.85-.68s-.29-.63-.85-.63H166V14.8Z"/><path class="cls-2" d="M168.41,13.25a.29.29,0,0,1,.57,0,.29.29,0,0,1-.57,0Zm.08.77h.41v2.43h-.41Z"/><path class="cls-2" d="M169.88,14.35h-.36V14l.38,0,0-.68h.35V14h.66v.34h-.66V15.7c0,.3.09.47.38.47a.91.91,0,0,0,.28-.06l.08.31a1.5,1.5,0,0,1-.45.09c-.52,0-.7-.33-.7-.81Z"/><path class="cls-2" d="M171.66,14.35h-.36V14l.38,0,0-.68h.35V14h.66v.34h-.66V15.7c0,.3.09.47.38.47a.91.91,0,0,0,.28-.06l.08.31a1.5,1.5,0,0,1-.45.09c-.52,0-.7-.33-.7-.81Z"/><path class="cls-2" d="M174.51,13.16h1c.67,0,1.13.23,1.13.8a.71.71,0,0,1-.58.72v0c.48.08.76.34.76.79,0,.65-.51,1-1.24,1h-1.05Zm.91,1.4c.56,0,.79-.2.79-.57s-.27-.51-.77-.51h-.5v1.07Zm.08,1.55c.56,0,.89-.21.89-.65s-.32-.59-.89-.59h-.57v1.24Z"/><path class="cls-2" d="M177.71,15.88a.32.32,0,1,1-.3.32A.3.3,0,0,1,177.71,15.88Z"/><path class="cls-2" d="M181.46,15.44h-1.2l-.31,1h-.43l1.11-3.28h.47l1.11,3.28h-.44Zm-.11-.33-.16-.5c-.12-.37-.22-.73-.33-1.11h0c-.1.38-.21.74-.33,1.11l-.16.5Z"/><path class="cls-2" d="M185.35,15.44h-1.2l-.32,1h-.42l1.11-3.28H185l1.11,3.28h-.44Zm-.1-.33-.16-.5c-.12-.37-.22-.73-.33-1.11h0c-.11.38-.21.74-.33,1.11l-.16.5Z"/><path class="cls-2" d="M186.61,14H187l0,.35h0a1.07,1.07,0,0,1,.76-.41.64.64,0,0,1,.67.46,1.15,1.15,0,0,1,.8-.46c.5,0,.74.33.74,1v1.54h-.41V15c0-.46-.15-.65-.45-.65a.89.89,0,0,0-.61.38v1.76h-.41V15c0-.46-.15-.65-.46-.65a.91.91,0,0,0-.61.38v1.76h-.41Z"/><path class="cls-2" d="M193.26,13.1a1.21,1.21,0,0,1,.9.41l-.24.26a.88.88,0,0,0-.66-.3c-.63,0-1,.51-1,1.33s.4,1.35,1,1.35a1,1,0,0,0,.75-.37l.24.26a1.26,1.26,0,0,1-1,.48c-.83,0-1.44-.63-1.44-1.7A1.51,1.51,0,0,1,193.26,13.1Z"/><path class="cls-2" d="M195.83,14A1.16,1.16,0,0,1,197,15.23a1.13,1.13,0,1,1-2.25,0A1.16,1.16,0,0,1,195.83,14Zm0,2.21c.42,0,.7-.38.7-.93s-.28-.94-.7-.94-.7.38-.7.94S195.41,16.17,195.83,16.17Z"/><path class="cls-2" d="M197.69,12.88h.41V16c0,.13.05.18.12.18h.09l.05.31a.54.54,0,0,1-.23,0c-.31,0-.44-.2-.44-.55Z"/><path class="cls-2" d="M199.06,12.88h.41V16c0,.13.06.18.12.18h.09l.06.31a.55.55,0,0,1-.24,0c-.31,0-.43-.2-.43-.55Z"/><path class="cls-2" d="M202.83,13.1a1.21,1.21,0,0,1,.9.41l-.23.26a.88.88,0,0,0-.66-.3c-.62,0-1,.51-1,1.33s.4,1.35,1,1.35a1,1,0,0,0,.75-.37l.24.26a1.26,1.26,0,0,1-1,.48c-.83,0-1.44-.63-1.44-1.7A1.51,1.51,0,0,1,202.83,13.1Z"/><path class="cls-2" d="M205.83,14.9c0-.31-.1-.61-.5-.61a1.31,1.31,0,0,0-.72.26l-.17-.29a1.81,1.81,0,0,1,1-.32c.6,0,.85.4.85,1v1.49h-.34l0-.29h0a1.32,1.32,0,0,1-.81.35.66.66,0,0,1-.72-.69C204.34,15.28,204.8,15,205.83,14.9Zm-.67,1.27a1,1,0,0,0,.67-.33v-.68c-.82.1-1.09.3-1.09.61A.37.37,0,0,0,205.17,16.17Z"/><path class="cls-2" d="M207.11,14h.34l0,.44h0a.83.83,0,0,1,.69-.5.6.6,0,0,1,.26,0l-.08.36a.67.67,0,0,0-.23,0c-.21,0-.45.15-.62.56v1.56h-.41Z"/><path class="cls-2" d="M209.77,14a1,1,0,0,1,.68.28l0-.42v-.94h.42v3.56h-.34l0-.29h0a1.1,1.1,0,0,1-.74.35c-.61,0-1-.46-1-1.27A1.15,1.15,0,0,1,209.77,14Zm0,2.21a.82.82,0,0,0,.62-.34V14.55a.85.85,0,0,0-.59-.26c-.39,0-.7.38-.7.93S209.39,16.16,209.81,16.16Z"/><path class="cls-2" d="M211.69,13.25a.29.29,0,0,1,.57,0,.29.29,0,0,1-.57,0Zm.08.77h.41v2.43h-.41Z"/><path class="cls-2" d="M214,14a1.16,1.16,0,0,1,1.13,1.28,1.13,1.13,0,1,1-2.25,0A1.16,1.16,0,0,1,214,14Zm0,2.21c.42,0,.7-.38.7-.93s-.28-.94-.7-.94-.7.38-.7.94S213.62,16.17,214,16.17Z"/><path class="cls-2" d="M215.89,12.88h.41V16c0,.13.06.18.12.18h.09l.06.31a.55.55,0,0,1-.24,0c-.31,0-.43-.2-.43-.55Z"/><path class="cls-2" d="M218.16,16.2c1-1,1.5-1.53,1.5-2a.57.57,0,0,0-.61-.63.94.94,0,0,0-.68.39l-.24-.24a1.25,1.25,0,0,1,1-.49.89.89,0,0,1,1,.94c0,.6-.55,1.2-1.3,2l.54,0h.93v.36h-2.06Z"/><path class="cls-2" d="M220.76,14.84c0-1.07.38-1.65,1-1.65s1,.58,1,1.65-.38,1.67-1,1.67S220.76,15.91,220.76,14.84Zm1.65,0c0-.94-.25-1.32-.62-1.32s-.62.38-.62,1.32.25,1.34.63,1.34S222.4,15.77,222.4,14.84Z"/><path class="cls-2" d="M223.34,14.84c0-1.07.38-1.65,1-1.65s1,.58,1,1.65-.38,1.67-1,1.67S223.34,15.91,223.34,14.84Zm1.65,0c0-.94-.25-1.32-.62-1.32s-.62.38-.62,1.32.25,1.34.63,1.34S225,15.77,225,14.84Z"/><path class="cls-2" d="M226,15.8a1.09,1.09,0,0,0,.81.37.69.69,0,0,0,.7-.73.64.64,0,0,0-.68-.7.9.9,0,0,0-.55.2l-.22-.14.11-1.54h1.6v.36h-1.24l-.08.95a1,1,0,0,1,.49-.13.92.92,0,0,1,1,1,1,1,0,0,1-1.08,1.08,1.4,1.4,0,0,1-1-.44Z"/><path class="cls-2" d="M229.79,15.05a4.16,4.16,0,0,1,.66-2.27l.25.12a4.31,4.31,0,0,0,0,4.3l-.25.12A4.16,4.16,0,0,1,229.79,15.05Z"/><path class="cls-2" d="M231.39,16.11h.73V13.75h-.58v-.27a1.88,1.88,0,0,0,.68-.24h.32v2.85h.66v.34h-1.8Z"/><path class="cls-2" d="M233.77,16.2c1-1,1.5-1.53,1.5-2a.57.57,0,0,0-.61-.63.94.94,0,0,0-.68.39l-.24-.24a1.25,1.25,0,0,1,1-.49.89.89,0,0,1,1,.94c0,.6-.54,1.2-1.3,2l.54,0h.93v.36h-2.06Z"/><path class="cls-2" d="M236.92,15.05a4.16,4.16,0,0,0-.58-2.15l.26-.12a4.24,4.24,0,0,1,0,4.54l-.26-.12A4.16,4.16,0,0,0,236.92,15.05Z"/></g><g id="Capa_4" data-name="Capa 4"><polyline class="cls-3" points="38.5 202.5 155.5 107.5 182.5 78.5 234.5 36.5"/><g id="Capa_5" data-name="Capa 5"><polyline class="cls-4" points="38.5 202.5 150.5 131.5 212.5 94.5 237.5 73.5"/></g></g></svg>