<svg xmlns="http://www.w3.org/2000/svg" viewBox="0 0 365 238"><defs><style>.cls-1,.cls-3,.cls-4{fill:none;}.cls-1{stroke:#4faefc;}.cls-2{fill:#888;}.cls-3{stroke:#7c7c7c;}.cls-4{stroke:#289de9;}</style></defs><title>pzifer-1</title><g id="grafico"><line class="cls-1" x1="38.5" y1="25.5" x2="38.5" y2="203"/><line class="cls-1" x1="38.25" y1="202.5" x2="327.25" y2="202.5"/></g><g id="labels-horizontal"><path class="cls-2" d="M15.9,202.74c0-1.5.54-2.3,1.44-2.3s1.43.81,1.43,2.3-.54,2.33-1.43,2.33S15.9,204.24,15.9,202.74Zm2.3,0c0-1.31-.35-1.84-.87-1.84s-.87.53-.87,1.84.35,1.87.88,1.87S18.21,204,18.21,202.74Z"/><path class="cls-2" d="M14.34,139.71h1v-3.29h-.81V136a2.63,2.63,0,0,0,.95-.33h.44v4h.92v.48H14.34Z"/><path class="cls-2" d="M17.71,137.94c0-1.5.54-2.3,1.44-2.3s1.43.81,1.43,2.3-.54,2.33-1.43,2.33S17.71,139.44,17.71,137.94Zm2.3,0c0-1.31-.35-1.84-.87-1.84s-.88.53-.88,1.84.35,1.87.88,1.87S20,139.25,20,137.94Z"/><path class="cls-2" d="M16,171.68a1.52,1.52,0,0,0,1.13.51,1,1,0,0,0,1-1,.9.9,0,0,0-1-1,1.26,1.26,0,0,0-.76.27l-.31-.2.15-2.15h2.23v.5H16.78l-.12,1.32a1.36,1.36,0,0,1,.69-.18,1.29,1.29,0,0,1,1.39,1.4,1.46,1.46,0,0,1-1.51,1.51,2,2,0,0,1-1.46-.61Z"/><path class="cls-2" d="M14.34,107.31h1V104h-.81v-.37a2.63,2.63,0,0,0,.95-.33h.44v4h.92v.48H14.34Z"/><path class="cls-2" d="M17.85,106.88a1.52,1.52,0,0,0,1.13.51,1,1,0,0,0,1-1,.9.9,0,0,0-1-1,1.26,1.26,0,0,0-.76.27l-.31-.2.15-2.15h2.23v.5H18.59l-.12,1.32a1.37,1.37,0,0,1,.69-.18,1.29,1.29,0,0,1,1.39,1.4A1.46,1.46,0,0,1,19,107.87a2,2,0,0,1-1.46-.61Z"/><path class="cls-2" d="M14.07,75c1.34-1.34,2.1-2.14,2.1-2.87a.79.79,0,0,0-.85-.87,1.32,1.32,0,0,0-1,.54L14,71.51a1.76,1.76,0,0,1,1.35-.68,1.24,1.24,0,0,1,1.34,1.32c0,.84-.76,1.67-1.82,2.78.25,0,.52,0,.75,0H17v.5H14.07Z"/><path class="cls-2" d="M17.71,73.14c0-1.5.54-2.3,1.44-2.3s1.43.81,1.43,2.3-.54,2.33-1.43,2.33S17.71,74.64,17.71,73.14Zm2.3,0c0-1.31-.35-1.84-.87-1.84s-.88.53-.88,1.84.35,1.87.88,1.87S20,74.45,20,73.14Z"/><path class="cls-2" d="M14.07,42.64c1.34-1.34,2.1-2.14,2.1-2.87a.79.79,0,0,0-.85-.87,1.32,1.32,0,0,0-1,.54L14,39.11a1.76,1.76,0,0,1,1.35-.68,1.24,1.24,0,0,1,1.34,1.32c0,.84-.76,1.67-1.82,2.78.25,0,.52,0,.75,0H17V43H14.07Z"/><path class="cls-2" d="M17.85,42.08a1.52,1.52,0,0,0,1.13.51,1,1,0,0,0,1-1,.9.9,0,0,0-1-1,1.26,1.26,0,0,0-.76.27l-.31-.2.15-2.15h2.23V39H18.59l-.12,1.32a1.37,1.37,0,0,1,.69-.18,1.29,1.29,0,0,1,1.39,1.4A1.46,1.46,0,0,1,19,43.07a2,2,0,0,1-1.46-.61Z"/><path class="cls-2" d="M46.67,212.48a1.3,1.3,0,0,0,1,.46.71.71,0,0,0,.79-.7c0-.46-.31-.76-1.22-.76v-.38c.81,0,1.08-.31,1.08-.71a.59.59,0,0,0-.66-.61,1.16,1.16,0,0,0-.82.39l-.26-.31a1.57,1.57,0,0,1,1.1-.48c.67,0,1.14.35,1.14,1a1,1,0,0,1-.7.91v0a1,1,0,0,1,.83,1,1.13,1.13,0,0,1-1.26,1.09,1.63,1.63,0,0,1-1.26-.54Z"/><path class="cls-2" d="M82.4,210.09a.83.83,0,0,0-.63-.3c-.53,0-1,.41-1,1.63a1.23,1.23,0,0,1,.89-.48,1,1,0,0,1,1.09,1.18,1.16,1.16,0,0,1-1.13,1.23c-.75,0-1.32-.61-1.32-1.84,0-1.54.7-2.13,1.46-2.13a1.21,1.21,0,0,1,.92.41Zm-.12,2c0-.5-.23-.81-.71-.81a1,1,0,0,0-.8.5c.06.74.35,1.15.84,1.15S82.28,212.62,82.28,212.11Z"/><path class="cls-2" d="M114.34,212.63a.84.84,0,0,0,.63.31c.54,0,1-.42,1-1.64a1.2,1.2,0,0,1-.9.49A1,1,0,0,1,114,210.6a1.16,1.16,0,0,1,1.13-1.23c.76,0,1.32.61,1.32,1.84,0,1.54-.7,2.13-1.46,2.13a1.22,1.22,0,0,1-.92-.4ZM116,210.9c-.07-.74-.36-1.14-.85-1.14s-.67.34-.67.84.23.81.71.81A1,1,0,0,0,116,210.9Z"/><path class="cls-2" d="M146.43,212.86h.88V210h-.7v-.32a2.27,2.27,0,0,0,.81-.28h.38v3.42h.79v.41h-2.16Z"/><path class="cls-2" d="M149.3,213c1.15-1.15,1.8-1.83,1.8-2.45a.68.68,0,0,0-.73-.75,1.13,1.13,0,0,0-.82.46l-.28-.28a1.5,1.5,0,0,1,1.16-.58,1.06,1.06,0,0,1,1.15,1.13c0,.72-.65,1.43-1.56,2.38.21,0,.44,0,.64,0h1.11v.43H149.3Z"/><path class="cls-2" d="M180.18,212.86h.88V210h-.7v-.32a2.27,2.27,0,0,0,.81-.28h.38v3.42h.79v.41h-2.16Z"/><path class="cls-2" d="M183.2,212.5a1.3,1.3,0,0,0,1,.44.83.83,0,0,0,.84-.87.77.77,0,0,0-.82-.84,1.08,1.08,0,0,0-.65.23l-.26-.17.13-1.84h1.91v.43h-1.48l-.1,1.13a1.18,1.18,0,0,1,.59-.16,1.1,1.1,0,0,1,1.19,1.2,1.25,1.25,0,0,1-1.29,1.3,1.67,1.67,0,0,1-1.25-.52Z"/><path class="cls-2" d="M213.93,212.86h.88V210h-.7v-.32a2.27,2.27,0,0,0,.81-.28h.38v3.42h.79v.41h-2.16Z"/><path class="cls-2" d="M217.52,211.26v0a1.09,1.09,0,0,1-.53-.88,1.09,1.09,0,0,1,2.17,0,1.26,1.26,0,0,1-.53.92v0a1,1,0,0,1-.57,2,1.13,1.13,0,0,1-1.25-1A1.21,1.21,0,0,1,217.52,211.26Zm.55,1.71a.68.68,0,0,0,.75-.67c0-.49-.49-.67-1-.89a1,1,0,0,0-.53.83A.76.76,0,0,0,218.07,213Zm.66-2.56a.64.64,0,0,0-.67-.68.59.59,0,0,0-.62.62c0,.46.42.65.88.83A1,1,0,0,0,218.73,210.42Z"/><path class="cls-2" d="M247.45,213c1.15-1.15,1.8-1.83,1.8-2.45a.68.68,0,0,0-.73-.75,1.13,1.13,0,0,0-.82.46l-.28-.28a1.5,1.5,0,0,1,1.16-.58,1.06,1.06,0,0,1,1.15,1.13c0,.72-.65,1.43-1.56,2.38.21,0,.44,0,.64,0h1.11v.43h-2.47Z"/><path class="cls-2" d="M250.78,212.86h.88V210H251v-.32a2.27,2.27,0,0,0,.81-.28h.38v3.42h.79v.41h-2.16Z"/><path class="cls-2" d="M281.2,213c1.15-1.15,1.8-1.83,1.8-2.45a.68.68,0,0,0-.73-.75,1.13,1.13,0,0,0-.82.46l-.28-.28a1.5,1.5,0,0,1,1.16-.58,1.06,1.06,0,0,1,1.15,1.13c0,.72-.65,1.43-1.56,2.38.21,0,.44,0,.64,0h1.11v.43H281.2Z"/><path class="cls-2" d="M286.87,212.22h-.52v1.06h-.47v-1.06h-1.72v-.32l1.64-2.45h.55v2.38h.52Zm-1-.4v-1.11c0-.2,0-.53,0-.74h0c-.1.19-.2.35-.31.54l-.89,1.31Z"/><path class="cls-2" d="M315,213c1.15-1.15,1.8-1.83,1.8-2.45a.68.68,0,0,0-.73-.75,1.13,1.13,0,0,0-.82.46l-.28-.28a1.5,1.5,0,0,1,1.16-.58,1.06,1.06,0,0,1,1.15,1.13c0,.72-.65,1.43-1.56,2.38.21,0,.44,0,.64,0h1.11v.43H315Z"/><path class="cls-2" d="M320,209.87h-1.91v-.43h2.46v.31a5.24,5.24,0,0,0-1.16,3.52h-.51A5.63,5.63,0,0,1,320,209.87Z"/><path class="cls-2" d="M7.84,12.48h.89v3.91H7.84Z"/><path class="cls-2" d="M9.69,13.42h.72l.06.38h0a1.37,1.37,0,0,1,1-.45c.65,0,.92.46.92,1.2v1.85h-.88V14.66c0-.43-.11-.56-.37-.56a.75.75,0,0,0-.55.29v2H9.69Z"/><path class="cls-2" d="M14.61,13.35a1.2,1.2,0,0,1,.87.34l-.4.55a.64.64,0,0,0-.41-.17c-.43,0-.7.33-.7.85s.28.85.67.85a.86.86,0,0,0,.53-.22l.35.56a1.54,1.54,0,0,1-1,.37,1.43,1.43,0,0,1-1.47-1.56A1.49,1.49,0,0,1,14.61,13.35Z"/><path class="cls-2" d="M16.08,12.52a.51.51,0,1,1,.51.46A.47.47,0,0,1,16.08,12.52Zm.07.9H17v3h-.88Z"/><path class="cls-2" d="M19,13.35a1,1,0,0,1,.73.31l0-.46v-1h.88v4.2h-.72l-.06-.29h0a1.18,1.18,0,0,1-.79.37c-.74,0-1.22-.59-1.22-1.56A1.39,1.39,0,0,1,19,13.35Zm.21,2.4a.56.56,0,0,0,.49-.27V14.26a.71.71,0,0,0-.49-.19c-.28,0-.53.26-.53.83S18.87,15.75,19.21,15.75Z"/><path class="cls-2" d="M22.7,13.35A1.26,1.26,0,0,1,24,14.77a1.78,1.78,0,0,1,0,.37H22.15a.72.72,0,0,0,.77.65,1.2,1.2,0,0,0,.64-.2l.29.53a2,2,0,0,1-1.06.34,1.45,1.45,0,0,1-1.5-1.56A1.46,1.46,0,0,1,22.7,13.35Zm.52,1.25c0-.34-.14-.58-.5-.58s-.52.19-.58.58Z"/><path class="cls-2" d="M24.7,13.42h.72l.06.38h0a1.37,1.37,0,0,1,1-.45c.65,0,.92.46.92,1.2v1.85H26.5V14.66c0-.43-.11-.56-.37-.56a.75.75,0,0,0-.55.29v2H24.7Z"/><path class="cls-2" d="M29.62,13.35a1.2,1.2,0,0,1,.87.34l-.4.55a.64.64,0,0,0-.41-.17c-.43,0-.7.33-.7.85s.28.85.67.85a.86.86,0,0,0,.53-.22l.35.56a1.54,1.54,0,0,1-1,.37,1.43,1.43,0,0,1-1.47-1.56A1.49,1.49,0,0,1,29.62,13.35Z"/><path class="cls-2" d="M31.09,12.52a.51.51,0,1,1,.51.46A.47.47,0,0,1,31.09,12.52Zm.07.9H32v3h-.88Z"/><path class="cls-2" d="M34.49,14.48A.41.41,0,0,0,34,14a1.6,1.6,0,0,0-.79.27l-.31-.58a2.46,2.46,0,0,1,1.27-.39c.76,0,1.18.43,1.18,1.34v1.7h-.72l-.07-.31h0a1.31,1.31,0,0,1-.87.38.85.85,0,0,1-.88-.9C32.82,14.94,33.32,14.6,34.49,14.48ZM34,15.78a.66.66,0,0,0,.49-.25V15c-.63.08-.83.26-.83.49S33.79,15.78,34,15.78Z"/><path class="cls-2" d="M38.69,13.35a1,1,0,0,1,.73.31l0-.46v-1h.88v4.2h-.72l-.06-.29h0a1.18,1.18,0,0,1-.79.37c-.74,0-1.22-.59-1.22-1.56A1.39,1.39,0,0,1,38.69,13.35Zm.21,2.4a.56.56,0,0,0,.49-.27V14.26a.71.71,0,0,0-.49-.19c-.28,0-.53.26-.53.83S38.55,15.75,38.9,15.75Z"/><path class="cls-2" d="M42.39,13.35a1.26,1.26,0,0,1,1.27,1.43,1.79,1.79,0,0,1,0,.37H41.84a.72.72,0,0,0,.77.65,1.19,1.19,0,0,0,.64-.2l.29.53a2,2,0,0,1-1.06.34A1.45,1.45,0,0,1,41,14.91,1.46,1.46,0,0,1,42.39,13.35Zm.52,1.25c0-.34-.14-.58-.5-.58s-.52.19-.58.58Z"/><path class="cls-2" d="M45.74,13.42h.72l.06.38h0a1.25,1.25,0,0,1,.9-.46.82.82,0,0,1,.82.5,1.3,1.3,0,0,1,.94-.5c.64,0,.93.46.93,1.2v1.85h-.88V14.66c0-.43-.11-.56-.37-.56a.79.79,0,0,0-.51.29v2h-.88V14.66c0-.43-.11-.56-.37-.56a.78.78,0,0,0-.5.29v2h-.88Z"/><path class="cls-2" d="M52.28,13.35a1.46,1.46,0,0,1,1.45,1.56,1.45,1.45,0,1,1-2.9,0A1.46,1.46,0,0,1,52.28,13.35Zm0,2.4c.36,0,.54-.33.54-.85s-.19-.85-.54-.85-.55.33-.55.85S51.91,15.75,52.28,15.75Z"/><path class="cls-2" d="M54.44,13.42h.72l.06.52h0a1,1,0,0,1,.85-.59.85.85,0,0,1,.35.06l-.14.76a1.1,1.1,0,0,0-.32,0,.74.74,0,0,0-.65.55v1.73h-.88Z"/><path class="cls-2" d="M57.07,14.11h-.41v-.65l.46,0,.1-.79h.73v.79h.71v.69h-.71V15.3c0,.34.15.47.38.47a.83.83,0,0,0,.28-.06l.14.64a2.13,2.13,0,0,1-.66.11c-.74,0-1-.46-1-1.15Z"/><path class="cls-2" d="M60.85,14.48a.41.41,0,0,0-.47-.43,1.6,1.6,0,0,0-.79.27l-.31-.58a2.47,2.47,0,0,1,1.27-.39c.76,0,1.18.43,1.18,1.34v1.7H61l-.07-.31h0a1.31,1.31,0,0,1-.87.38.85.85,0,0,1-.88-.9C59.18,14.94,59.68,14.6,60.85,14.48Zm-.49,1.3a.67.67,0,0,0,.49-.25V15c-.63.08-.83.26-.83.49S60.15,15.78,60.36,15.78Z"/><path class="cls-2" d="M62.6,12.19h.88v3.32c0,.19.08.25.16.25h.11l.11.65a1.15,1.15,0,0,1-.44.07c-.61,0-.81-.4-.81-1Z"/><path class="cls-2" d="M64.36,12.52a.51.51,0,1,1,.51.46A.47.47,0,0,1,64.36,12.52Zm.07.9h.88v3h-.88Z"/><path class="cls-2" d="M67.28,13.35a1,1,0,0,1,.73.31l0-.46v-1h.88v4.2h-.72l-.06-.29h0a1.18,1.18,0,0,1-.79.37c-.74,0-1.22-.59-1.22-1.56A1.39,1.39,0,0,1,67.28,13.35Zm.21,2.4a.56.56,0,0,0,.49-.27V14.26a.71.71,0,0,0-.49-.19c-.28,0-.53.26-.53.83S67.15,15.75,67.49,15.75Z"/><path class="cls-2" d="M71.32,14.48a.41.41,0,0,0-.47-.43,1.6,1.6,0,0,0-.79.27l-.31-.58A2.46,2.46,0,0,1,71,13.35c.76,0,1.18.43,1.18,1.34v1.7h-.72l-.07-.31h0a1.31,1.31,0,0,1-.87.38.85.85,0,0,1-.88-.9C69.65,14.94,70.15,14.6,71.32,14.48Zm-.49,1.3a.66.66,0,0,0,.49-.25V15c-.63.08-.83.26-.83.49S70.62,15.78,70.83,15.78Z"/><path class="cls-2" d="M74.15,13.35a1,1,0,0,1,.73.31l0-.46v-1h.88v4.2H75L75,16.1h0a1.18,1.18,0,0,1-.79.37c-.74,0-1.22-.59-1.22-1.56A1.39,1.39,0,0,1,74.15,13.35Zm.21,2.4a.56.56,0,0,0,.49-.27V14.26a.71.71,0,0,0-.49-.19c-.28,0-.53.26-.53.83S74,15.75,74.36,15.75Z"/><path class="cls-2" d="M78.87,16.63v.87H78V13.42h.72l.06.29h0a1.31,1.31,0,0,1,.85-.37c.72,0,1.16.59,1.16,1.51s-.61,1.61-1.25,1.61a1,1,0,0,1-.71-.31Zm.47-.88c.3,0,.55-.26.55-.88s-.16-.8-.52-.8a.69.69,0,0,0-.51.27v1.22A.69.69,0,0,0,79.34,15.75Z"/><path class="cls-2" d="M82.82,13.35a1.46,1.46,0,0,1,1.45,1.56,1.45,1.45,0,1,1-2.9,0A1.46,1.46,0,0,1,82.82,13.35Zm0,2.4c.36,0,.55-.33.55-.85s-.19-.85-.55-.85-.54.33-.54.85S82.45,15.75,82.82,15.75Z"/><path class="cls-2" d="M85,13.42h.72l.06.52h0a1,1,0,0,1,.85-.59.85.85,0,0,1,.35.06l-.14.76a1.1,1.1,0,0,0-.32,0,.74.74,0,0,0-.65.55v1.73H85Z"/><path class="cls-2" d="M90.22,13.35a1.2,1.2,0,0,1,.87.34l-.4.55a.64.64,0,0,0-.41-.17c-.43,0-.7.33-.7.85s.28.85.67.85a.86.86,0,0,0,.53-.22l.35.56a1.54,1.54,0,0,1-1,.37,1.43,1.43,0,0,1-1.47-1.56A1.5,1.5,0,0,1,90.22,13.35Z"/><path class="cls-2" d="M91.73,13.42h.88v1.73c0,.43.11.56.37.56s.35-.1.53-.33v-2h.88v3h-.72L93.61,16h0a1.16,1.16,0,0,1-.94.49c-.65,0-.92-.46-.92-1.2Z"/><path class="cls-2" d="M96.85,14.48a.41.41,0,0,0-.47-.43,1.6,1.6,0,0,0-.79.27l-.31-.58a2.47,2.47,0,0,1,1.27-.39c.76,0,1.18.43,1.18,1.34v1.7H97l-.07-.31h0a1.31,1.31,0,0,1-.87.38.85.85,0,0,1-.88-.9C95.18,14.94,95.68,14.6,96.85,14.48Zm-.49,1.3a.67.67,0,0,0,.49-.25V15c-.63.08-.83.26-.83.49S96.15,15.78,96.36,15.78Z"/><path class="cls-2" d="M98.6,12.19h.88v3.32c0,.19.08.25.16.25h.11l.11.65a1.15,1.15,0,0,1-.44.07c-.61,0-.81-.4-.81-1Z"/><path class="cls-2" d="M101.51,13.35a1,1,0,0,1,.79.37h0l.07-.29h.69V17.5h-.88v-.91l0-.46a1.13,1.13,0,0,1-.75.33c-.74,0-1.22-.59-1.22-1.56A1.39,1.39,0,0,1,101.51,13.35Zm.21,2.4a.56.56,0,0,0,.49-.27V14.26a.71.71,0,0,0-.49-.19c-.28,0-.53.26-.53.83S101.38,15.75,101.72,15.75Z"/><path class="cls-2" d="M103.95,13.42h.88v1.73c0,.43.11.56.37.56s.35-.1.53-.33v-2h.88v3h-.72l-.07-.41h0a1.16,1.16,0,0,1-.94.49c-.65,0-.92-.46-.92-1.2Z"/><path class="cls-2" d="M107.43,12.52a.51.51,0,1,1,.51.46A.47.47,0,0,1,107.43,12.52Zm.07.9h.88v3h-.88Z"/><path class="cls-2" d="M110.5,13.35a1.26,1.26,0,0,1,1.27,1.43,1.79,1.79,0,0,1,0,.37h-1.78a.72.72,0,0,0,.77.65,1.19,1.19,0,0,0,.64-.2l.29.53a2,2,0,0,1-1.06.34,1.45,1.45,0,0,1-1.5-1.56A1.46,1.46,0,0,1,110.5,13.35ZM111,14.6c0-.34-.14-.58-.5-.58s-.52.19-.58.58Z"/><path class="cls-2" d="M112.49,13.42h.72l.06.52h0a1,1,0,0,1,.85-.59.85.85,0,0,1,.35.06l-.14.76a1.1,1.1,0,0,0-.32,0,.74.74,0,0,0-.65.55v1.73h-.88Z"/><path class="cls-2" d="M117.73,13.35a1.2,1.2,0,0,1,.87.34l-.4.55a.64.64,0,0,0-.41-.17c-.43,0-.7.33-.7.85s.28.85.67.85a.86.86,0,0,0,.53-.22l.35.56a1.54,1.54,0,0,1-1,.37,1.43,1.43,0,0,1-1.47-1.56A1.49,1.49,0,0,1,117.73,13.35Z"/><path class="cls-2" d="M120.78,14.48a.41.41,0,0,0-.47-.43,1.6,1.6,0,0,0-.79.27l-.31-.58a2.46,2.46,0,0,1,1.27-.39c.76,0,1.18.43,1.18,1.34v1.7h-.72l-.07-.31h0a1.31,1.31,0,0,1-.87.38.85.85,0,0,1-.88-.9C119.11,14.94,119.6,14.6,120.78,14.48Zm-.49,1.3a.66.66,0,0,0,.49-.25V15c-.63.08-.83.26-.83.49S120.08,15.78,120.29,15.78Z"/><path class="cls-2" d="M122.5,13.42h.88v1.73c0,.43.11.56.37.56s.35-.1.53-.33v-2h.88v3h-.72l-.07-.41h0a1.16,1.16,0,0,1-.94.49c-.65,0-.92-.46-.92-1.2Z"/><path class="cls-2" d="M126.18,15.5a1.28,1.28,0,0,0,.77.31c.26,0,.38-.1.38-.25s-.3-.29-.61-.41-.79-.38-.79-.88.45-.93,1.14-.93a1.71,1.71,0,0,1,1,.38l-.4.53a1.1,1.1,0,0,0-.63-.25c-.23,0-.34.08-.34.23s.28.26.58.38.8.35.8.89-.43,1-1.22,1a1.92,1.92,0,0,1-1.14-.41Z"/><path class="cls-2" d="M130.39,14.48a.41.41,0,0,0-.47-.43,1.6,1.6,0,0,0-.79.27l-.31-.58a2.47,2.47,0,0,1,1.27-.39c.76,0,1.18.43,1.18,1.34v1.7h-.72l-.07-.31h0a1.31,1.31,0,0,1-.87.38.85.85,0,0,1-.88-.9C128.72,14.94,129.21,14.6,130.39,14.48Zm-.49,1.3a.67.67,0,0,0,.49-.25V15c-.63.08-.83.26-.83.49S129.69,15.78,129.9,15.78Z"/><path class="cls-2" d="M133.55,14.73a5,5,0,0,1,.79-2.74l.55.23a5.33,5.33,0,0,0,0,5l-.55.23A5,5,0,0,1,133.55,14.73Z"/><path class="cls-2" d="M135.45,13.65c0-.78.41-1.24,1-1.24s1,.46,1,1.24-.41,1.25-1,1.25S135.45,14.43,135.45,13.65Zm1.33,0c0-.55-.16-.74-.36-.74s-.36.19-.36.74.16.76.36.76S136.78,14.2,136.78,13.65Zm-.22,2.82,2.11-4.05h.5l-2.11,4.05Zm1.77-1.25c0-.78.41-1.24,1-1.24s1,.46,1,1.24-.41,1.25-1,1.25S138.33,16,138.33,15.22Zm1.34,0c0-.56-.16-.74-.36-.74s-.36.19-.36.74.16.76.36.76S139.67,15.78,139.67,15.22Z"/><path class="cls-2" d="M141.47,14.73a5.08,5.08,0,0,0-.64-2.51l.55-.23a5.14,5.14,0,0,1,0,5.48l-.55-.23A5.08,5.08,0,0,0,141.47,14.73Z"/><path class="cls-2" d="M161.9,222.3h.94l.65,1.76.23.68h0l.23-.68.64-1.76h.94v3.91h-.83v-1.43c0-.38.07-1,.11-1.33h0l-.32.91-.61,1.52h-.35l-.6-1.52-.31-.91h0c0,.38.11.95.11,1.33v1.43h-.82Z"/><path class="cls-2" d="M167.75,223.16a1.26,1.26,0,0,1,1.27,1.43,1.79,1.79,0,0,1,0,.37H167.2a.72.72,0,0,0,.77.65,1.19,1.19,0,0,0,.64-.2l.29.53a2,2,0,0,1-1.06.34,1.56,1.56,0,0,1-.1-3.12Zm.52,1.25c0-.34-.14-.58-.5-.58s-.52.19-.58.58Z"/><path class="cls-2" d="M169.87,225.31a1.28,1.28,0,0,0,.77.31c.26,0,.38-.1.38-.25s-.3-.29-.61-.41-.79-.38-.79-.88.45-.93,1.14-.93a1.71,1.71,0,0,1,1,.38l-.4.53a1.09,1.09,0,0,0-.63-.25c-.23,0-.34.08-.34.23s.28.26.58.38.8.35.8.89-.43,1-1.22,1a1.92,1.92,0,0,1-1.14-.41Z"/><path class="cls-2" d="M173.74,223.16a1.26,1.26,0,0,1,1.27,1.43,1.78,1.78,0,0,1,0,.37h-1.78a.72.72,0,0,0,.77.65,1.2,1.2,0,0,0,.64-.2l.29.53a2,2,0,0,1-1.06.34,1.56,1.56,0,0,1-.1-3.12Zm.52,1.25c0-.34-.14-.58-.5-.58s-.52.19-.58.58Z"/><path class="cls-2" d="M175.87,225.31a1.28,1.28,0,0,0,.77.31c.26,0,.38-.1.38-.25s-.3-.29-.61-.41-.79-.38-.79-.88.45-.93,1.14-.93a1.71,1.71,0,0,1,1.05.38l-.4.53a1.1,1.1,0,0,0-.63-.25c-.23,0-.33.08-.33.23s.28.26.58.38.8.35.8.89-.43,1-1.22,1a1.92,1.92,0,0,1-1.14-.41Z"/><path class="cls-2" d="M180.95,223.16a1,1,0,0,1,.73.31l0-.46v-1h.88v4.2h-.72l-.06-.29h0a1.18,1.18,0,0,1-.79.37c-.74,0-1.22-.59-1.22-1.56A1.39,1.39,0,0,1,180.95,223.16Zm.21,2.4a.56.56,0,0,0,.49-.27v-1.22a.71.71,0,0,0-.49-.19c-.28,0-.53.26-.53.83S180.81,225.56,181.16,225.56Z"/><path class="cls-2" d="M184.65,223.16a1.26,1.26,0,0,1,1.26,1.43,1.78,1.78,0,0,1,0,.37H184.1a.72.72,0,0,0,.77.65,1.2,1.2,0,0,0,.64-.2l.29.53a1.94,1.94,0,0,1-1.05.34,1.56,1.56,0,0,1-.1-3.12Zm.52,1.25c0-.34-.14-.58-.5-.58s-.52.19-.58.58Z"/><path class="cls-2" d="M186.77,225.31a1.28,1.28,0,0,0,.77.31c.26,0,.38-.1.38-.25s-.3-.29-.61-.41-.79-.38-.79-.88.45-.93,1.14-.93a1.71,1.71,0,0,1,1,.38l-.4.53a1.1,1.1,0,0,0-.63-.25c-.23,0-.34.08-.34.23s.28.26.58.38.8.35.8.89-.43,1-1.22,1a1.92,1.92,0,0,1-1.14-.41Z"/><path class="cls-2" d="M190.49,223.16a1,1,0,0,1,.73.31l0-.46v-1h.88v4.2h-.72l-.06-.29h0a1.18,1.18,0,0,1-.79.37c-.74,0-1.22-.59-1.22-1.56A1.39,1.39,0,0,1,190.49,223.16Zm.21,2.4a.56.56,0,0,0,.49-.27v-1.22a.71.71,0,0,0-.49-.19c-.28,0-.53.26-.53.83S190.36,225.56,190.7,225.56Z"/><path class="cls-2" d="M194.19,223.16a1.26,1.26,0,0,1,1.26,1.43,1.79,1.79,0,0,1,0,.37h-1.78a.72.72,0,0,0,.77.65,1.2,1.2,0,0,0,.64-.2l.29.53a2,2,0,0,1-1.05.34,1.56,1.56,0,0,1-.1-3.12Zm.52,1.25c0-.34-.14-.58-.5-.58s-.52.19-.58.58Z"/><path class="cls-2" d="M197.55,222h.88v3.32c0,.19.08.25.16.25h.11l.11.65a1.15,1.15,0,0,1-.44.07c-.61,0-.81-.4-.81-1Z"/><path class="cls-2" d="M200.94,224.29a.41.41,0,0,0-.47-.43,1.6,1.6,0,0,0-.79.27l-.31-.58a2.46,2.46,0,0,1,1.27-.39c.76,0,1.18.43,1.18,1.34v1.7h-.72l-.07-.31h0a1.31,1.31,0,0,1-.87.38.85.85,0,0,1-.88-.9C199.27,224.75,199.77,224.41,200.94,224.29Zm-.49,1.3a.66.66,0,0,0,.49-.25v-.52c-.63.08-.83.26-.83.49S200.24,225.59,200.45,225.59Z"/><path class="cls-2" d="M204.06,223.23h.72l.06.52h0a1,1,0,0,1,.85-.59.85.85,0,0,1,.35.06l-.14.76a1.11,1.11,0,0,0-.32,0,.74.74,0,0,0-.65.55v1.73h-.88Z"/><path class="cls-2" d="M208,224.29a.41.41,0,0,0-.47-.43,1.6,1.6,0,0,0-.79.27l-.31-.58a2.47,2.47,0,0,1,1.27-.39c.76,0,1.18.43,1.18,1.34v1.7h-.72l-.07-.31h0a1.31,1.31,0,0,1-.87.38.85.85,0,0,1-.88-.9C206.28,224.75,206.78,224.41,208,224.29Zm-.49,1.3a.67.67,0,0,0,.49-.25v-.52c-.63.08-.83.26-.83.49S207.25,225.59,207.46,225.59Z"/><path class="cls-2" d="M209.71,223.23h.72l.06.38h0a1.37,1.37,0,0,1,1-.45c.65,0,.92.46.92,1.2v1.85h-.88v-1.73c0-.43-.11-.56-.37-.56a.75.75,0,0,0-.55.29v2h-.88Z"/><path class="cls-2" d="M214.33,223.16a1,1,0,0,1,.73.31l0-.46v-1h.88v4.2h-.72l-.06-.29h0a1.17,1.17,0,0,1-.79.37c-.74,0-1.22-.59-1.22-1.56A1.39,1.39,0,0,1,214.33,223.16Zm.21,2.4a.56.56,0,0,0,.49-.27v-1.22a.71.71,0,0,0-.49-.19c-.28,0-.53.26-.53.83S214.2,225.56,214.54,225.56Z"/><path class="cls-2" d="M218.08,223.16a1.56,1.56,0,1,1-1.45,1.56A1.46,1.46,0,0,1,218.08,223.16Zm0,2.4c.36,0,.55-.33.55-.85s-.19-.85-.55-.85-.54.33-.54.85S217.71,225.56,218.08,225.56Z"/><path class="cls-2" d="M220.25,223.23H221l.06.38h0a1.25,1.25,0,0,1,.9-.46.82.82,0,0,1,.82.5,1.3,1.3,0,0,1,.94-.5c.64,0,.93.46.93,1.2v1.85h-.88v-1.73c0-.43-.12-.56-.37-.56a.79.79,0,0,0-.51.29v2H222v-1.73c0-.43-.11-.56-.37-.56a.78.78,0,0,0-.5.29v2h-.88Z"/><path class="cls-2" d="M225.43,222.33a.51.51,0,1,1,.51.46A.47.47,0,0,1,225.43,222.33Zm.07.9h.88v3h-.88Z"/><path class="cls-2" d="M227.11,225.73l1.25-1.81h-1.11v-.69h2.21v.47l-1.25,1.82h1.29v.69h-2.39Z"/><path class="cls-2" d="M231.63,224.29a.41.41,0,0,0-.47-.43,1.6,1.6,0,0,0-.79.27l-.31-.58a2.47,2.47,0,0,1,1.27-.39c.76,0,1.18.43,1.18,1.34v1.7h-.72l-.07-.31h0a1.31,1.31,0,0,1-.87.38.85.85,0,0,1-.88-.9C230,224.75,230.45,224.41,231.63,224.29Zm-.49,1.3a.67.67,0,0,0,.49-.25v-.52c-.63.08-.83.26-.83.49S230.93,225.59,231.14,225.59Z"/><path class="cls-2" d="M234.75,223.16a1.2,1.2,0,0,1,.87.34l-.4.55a.64.64,0,0,0-.41-.17c-.43,0-.7.33-.7.85s.28.85.67.85a.86.86,0,0,0,.53-.22l.35.56a1.54,1.54,0,0,1-1,.37,1.43,1.43,0,0,1-1.47-1.56A1.49,1.49,0,0,1,234.75,223.16Z"/><path class="cls-2" d="M236.22,222.33a.51.51,0,1,1,.51.46A.47.47,0,0,1,236.22,222.33Zm.07.9h.88v3h-.88Z"/><path class="cls-2" d="M239.34,223.16a1.56,1.56,0,1,1-1.45,1.56A1.46,1.46,0,0,1,239.34,223.16Zm0,2.4c.36,0,.55-.33.55-.85s-.19-.85-.55-.85-.54.33-.54.85S239,225.56,239.34,225.56Zm.15-2.8h-.64l.53-.9h.85Z"/><path class="cls-2" d="M241.51,223.23h.72l.06.38h0a1.37,1.37,0,0,1,1-.45c.65,0,.92.46.92,1.2v1.85h-.88v-1.73c0-.43-.12-.56-.37-.56a.75.75,0,0,0-.55.29v2h-.88Z"/><path class="cls-2" d="M248.55,13.94h.5l.64,1.76.24.67h0l.23-.67.63-1.76h.49v3.28h-.39V15.42c0-.29,0-.68.05-1h0l-.26.73L250,16.89h-.24l-.63-1.72-.26-.73h0c0,.29.05.68.05,1v1.81h-.39Z"/><path class="cls-2" d="M253.18,14.73A1.16,1.16,0,0,1,254.31,16a1.13,1.13,0,1,1-2.25,0A1.16,1.16,0,0,1,253.18,14.73Zm0,2.21c.42,0,.7-.37.7-.93s-.28-.94-.7-.94-.7.38-.7.94S252.76,16.94,253.18,16.94Z"/><path class="cls-2" d="M255.92,14.73a1,1,0,0,1,.68.28l0-.42v-.94H257v3.56h-.34l0-.29h0a1.1,1.1,0,0,1-.74.35c-.61,0-1-.46-1-1.27A1.15,1.15,0,0,1,255.92,14.73Zm0,2.21a.82.82,0,0,0,.62-.34V15.33a.85.85,0,0,0-.59-.26c-.39,0-.7.38-.7.93S255.53,16.94,256,16.94Z"/><path class="cls-2" d="M257.83,14a.29.29,0,0,1,.57,0,.29.29,0,0,1-.57,0Zm.07.77h.41v2.43h-.41Z"/><path class="cls-2" d="M260.33,14a.68.68,0,0,0-.28-.06c-.23,0-.34.16-.34.47v.38h.51v.34h-.51v2.1h-.41v-2.1H259v-.31l.33,0v-.38c0-.5.23-.81.71-.81a1.09,1.09,0,0,1,.41.08Z"/><path class="cls-2" d="M260.71,14a.29.29,0,0,1,.57,0,.29.29,0,0,1-.57,0Zm.08.77h.41v2.43h-.41Z"/><path class="cls-2" d="M263.1,14.73a1,1,0,0,1,.71.29l-.21.27a.73.73,0,0,0-.49-.22c-.44,0-.76.38-.76.94s.31.93.75.93a.87.87,0,0,0,.57-.25l.19.27a1.21,1.21,0,0,1-.79.32A1.14,1.14,0,0,1,261.93,16,1.18,1.18,0,0,1,263.1,14.73Z"/><path class="cls-2" d="M265.81,15.68c0-.31-.11-.61-.5-.61a1.31,1.31,0,0,0-.73.26l-.16-.29a1.8,1.8,0,0,1,1-.32c.6,0,.85.4.85,1v1.49h-.34l0-.29h0a1.32,1.32,0,0,1-.81.35.66.66,0,0,1-.71-.69C264.32,16.06,264.78,15.8,265.81,15.68ZM265.15,17a1,1,0,0,0,.67-.33V16c-.82.1-1.09.3-1.09.61A.37.37,0,0,0,265.15,17Z"/><path class="cls-2" d="M268,14.73a1,1,0,0,1,.68.28l0-.42v-.94H269v3.56h-.34l0-.29h0a1.1,1.1,0,0,1-.74.35c-.61,0-1-.46-1-1.27A1.15,1.15,0,0,1,268,14.73Zm0,2.21a.82.82,0,0,0,.62-.34V15.33a.85.85,0,0,0-.59-.26c-.39,0-.7.38-.7.93S267.59,16.94,268,16.94Z"/><path class="cls-2" d="M270.91,14.73A1.16,1.16,0,0,1,272,16a1.13,1.13,0,1,1-2.25,0A1.16,1.16,0,0,1,270.91,14.73Zm0,2.21c.42,0,.7-.37.7-.93s-.28-.94-.7-.94-.7.38-.7.94S270.49,16.94,270.91,16.94Z"/><path class="cls-2" d="M274.75,14.73a1,1,0,0,1,.68.28l0-.42v-.94h.42v3.56h-.34l0-.29h0a1.1,1.1,0,0,1-.74.35c-.61,0-1-.46-1-1.27A1.15,1.15,0,0,1,274.75,14.73Zm0,2.21a.82.82,0,0,0,.62-.34V15.33a.85.85,0,0,0-.59-.26c-.39,0-.7.38-.7.93S274.37,16.94,274.79,16.94Z"/><path class="cls-2" d="M277.65,14.73c.62,0,1,.45,1,1.14a1.48,1.48,0,0,1,0,.23H277a.81.81,0,0,0,.81.86,1.1,1.1,0,0,0,.61-.19l.14.27a1.44,1.44,0,0,1-.8.25A1.16,1.16,0,0,1,276.56,16,1.17,1.17,0,0,1,277.65,14.73Zm.61,1.1c0-.5-.22-.77-.6-.77a.76.76,0,0,0-.7.77Z"/><path class="cls-2" d="M280.45,13.94h1c.73,0,1.21.25,1.21,1s-.5,1-1.21,1h-.59v1.3h-.42Zm1,1.64c.58,0,.85-.21.85-.68s-.29-.63-.85-.63h-.54v1.31Z"/><path class="cls-2" d="M283.3,14a.29.29,0,0,1,.57,0,.29.29,0,0,1-.57,0Zm.08.77h.41v2.43h-.41Z"/><path class="cls-2" d="M284.77,15.13h-.36v-.31l.38,0,.05-.68h.35v.68h.66v.34h-.66v1.35c0,.3.09.47.38.47a.91.91,0,0,0,.28-.06l.08.31a1.51,1.51,0,0,1-.45.09c-.52,0-.7-.33-.7-.81Z"/><path class="cls-2" d="M286.55,15.13h-.36v-.31l.38,0,.05-.68H287v.68h.66v.34H287v1.35c0,.3.09.47.38.47a.91.91,0,0,0,.28-.06l.08.31a1.51,1.51,0,0,1-.45.09c-.52,0-.7-.33-.7-.81Z"/><path class="cls-2" d="M289.4,13.94h1c.67,0,1.13.23,1.13.8a.71.71,0,0,1-.58.72v0c.48.08.76.34.76.79,0,.65-.51,1-1.24,1H289.4Zm.91,1.4c.56,0,.79-.2.79-.57s-.27-.51-.77-.51h-.5v1.07Zm.09,1.55c.56,0,.89-.21.89-.65s-.32-.59-.89-.59h-.57v1.24Z"/><path class="cls-2" d="M292.6,16.65a.32.32,0,1,1-.3.32A.3.3,0,0,1,292.6,16.65Z"/><path class="cls-2" d="M294.85,13.94h.43L296.47,16l.36.68h0c0-.33-.05-.7-.05-1v-1.7h.4v3.28h-.43l-1.19-2.07-.36-.67h0c0,.33,0,.68,0,1v1.72h-.4Z"/><path class="cls-2" d="M299.26,13.94h1.89v.35h-1.47v1h1.24v.36h-1.24v1.19h1.52v.36h-1.94Z"/><path class="cls-2" d="M301.94,14.79h.34l0,.35h0a1.15,1.15,0,0,1,.82-.41c.51,0,.74.33.74,1v1.54h-.41V15.74c0-.46-.14-.65-.46-.65s-.42.13-.67.38v1.76h-.41Z"/><path class="cls-2" d="M304.94,17.14v0a.45.45,0,0,1-.21-.39.57.57,0,0,1,.27-.45v0a.86.86,0,0,1,.6-1.52,1,1,0,0,1,.34.06h.85v.32h-.5a.7.7,0,0,1,.2.5.83.83,0,0,1-.89.85.86.86,0,0,1-.37-.08.37.37,0,0,0-.15.29c0,.16.1.26.43.26H306c.57,0,.85.18.85.58s-.48.84-1.23.84c-.6,0-1-.24-1-.66A.7.7,0,0,1,304.94,17.14Zm.71.92c.47,0,.77-.24.77-.5s-.18-.3-.49-.3h-.42a1.18,1.18,0,0,1-.32,0,.51.51,0,0,0-.25.41C304.95,17.89,305.21,18.06,305.65,18.06Zm.46-2.46a.52.52,0,1,0-1,0,.52.52,0,1,0,1,0Z"/><path class="cls-2" d="M307.39,13.66h.41v3.1c0,.13.05.18.12.18H308l.05.31a.54.54,0,0,1-.23,0c-.31,0-.44-.2-.44-.55Z"/><path class="cls-2" d="M309.89,16.55a.63.63,0,0,0,.57.37c.35,0,.53-.2.53-.7V13.94h.42v2.32c0,.57-.26,1-.91,1a1,1,0,0,1-.9-.53Z"/><path class="cls-2" d="M313.46,13.94h.5l.64,1.76.24.67h0l.23-.67.63-1.76h.49v3.28h-.39V15.42c0-.29,0-.68.05-1h0l-.26.73-.63,1.72h-.24l-.63-1.72-.26-.73h0c0,.29.05.68.05,1v1.81h-.39Z"/><path class="cls-2" d="M318,14.73c.62,0,1,.45,1,1.14a1.5,1.5,0,0,1,0,.23h-1.64a.81.81,0,0,0,.81.86,1.1,1.1,0,0,0,.61-.19l.15.27a1.44,1.44,0,0,1-.8.25A1.16,1.16,0,0,1,317,16,1.17,1.17,0,0,1,318,14.73Zm.61,1.1c0-.5-.22-.77-.6-.77a.76.76,0,0,0-.7.77Z"/><path class="cls-2" d="M320.59,14.73a1,1,0,0,1,.68.28l0-.42v-.94h.42v3.56h-.34l0-.29h0a1.1,1.1,0,0,1-.74.35c-.61,0-1-.46-1-1.27A1.15,1.15,0,0,1,320.59,14.73Zm0,2.21a.82.82,0,0,0,.62-.34V15.33a.85.85,0,0,0-.59-.26c-.39,0-.7.38-.7.93S320.21,16.94,320.63,16.94Z"/><path class="cls-2" d="M323.48,17c1-1,1.5-1.53,1.5-2a.57.57,0,0,0-.61-.63.94.94,0,0,0-.68.39l-.24-.24a1.26,1.26,0,0,1,1-.49.89.89,0,0,1,1,.94c0,.6-.54,1.2-1.3,2l.54,0h.93v.36h-2.06Z"/><path class="cls-2" d="M326.08,15.62c0-1.07.39-1.65,1-1.65s1,.58,1,1.65-.39,1.67-1,1.67S326.08,16.69,326.08,15.62Zm1.65,0c0-.94-.25-1.32-.62-1.32s-.63.38-.63,1.32.25,1.34.63,1.34S327.72,16.55,327.72,15.62Z"/><path class="cls-2" d="M328.66,15.62c0-1.07.39-1.65,1-1.65s1,.58,1,1.65-.39,1.67-1,1.67S328.66,16.69,328.66,15.62Zm1.65,0c0-.94-.25-1.32-.62-1.32s-.63.38-.63,1.32.25,1.34.63,1.34S330.3,16.55,330.3,15.62Z"/><path class="cls-2" d="M331.36,16.56a1.08,1.08,0,0,0,.82.38.6.6,0,0,0,.66-.59c0-.38-.26-.64-1-.64v-.31c.68,0,.91-.26.91-.6a.49.49,0,0,0-.55-.51,1,1,0,0,0-.68.33l-.22-.26a1.31,1.31,0,0,1,.92-.4c.56,0,1,.29,1,.81a.79.79,0,0,1-.58.76v0a.83.83,0,0,1,.69.81,1,1,0,0,1-1.05.91,1.36,1.36,0,0,1-1.05-.45Z"/><path class="cls-2" d="M334,15.83a4.16,4.16,0,0,1,.66-2.27l.25.12a4.31,4.31,0,0,0,0,4.3l-.25.12A4.16,4.16,0,0,1,334,15.83Z"/><path class="cls-2" d="M335.6,16.88h.73V14.53h-.58v-.27a1.89,1.89,0,0,0,.68-.24h.32v2.85h.66v.34h-1.8Z"/><path class="cls-2" d="M338.18,16.88h.73V14.53h-.58v-.27A1.89,1.89,0,0,0,339,14h.32v2.85H340v.34h-1.8Z"/><path class="cls-2" d="M341.13,15.83a4.16,4.16,0,0,0-.58-2.15l.26-.12a4.24,4.24,0,0,1,0,4.54l-.26-.12A4.16,4.16,0,0,0,341.13,15.83Z"/></g><g id="Capa_4" data-name="Capa 4"><polyline class="cls-3" points="38.5 202.5 43.5 165.5 49.5 155.5 81.5 122.5 105.5 100.5 224.5 77.5 251.5 73.5 266.5 61.5 288.5 63.5 292.5 53.5 303.5 49.5 327.5 49.5"/><g id="Capa_5" data-name="Capa 5"><polyline class="cls-4" points="38.5 202.5 50.5 167.5 70.5 143.5 108.25 114.74 207.5 98.5 233.5 90.5 255.5 89.5 263.5 84.5 274.5 82.5 282.5 76.5 289.5 79.5 291.5 73.5 325.5 73.5"/></g></g></svg>