<svg xmlns="http://www.w3.org/2000/svg" viewBox="0 0 365 238"><defs><style>.cls-1,.cls-3,.cls-4{fill:none;}.cls-1{stroke:#fff;}.cls-2{fill:#fff;}.cls-3{stroke:#7c7c7c;}.cls-4{stroke:#289de9;}</style></defs><title>pzifer-1</title><g id="grafico"><line class="cls-1" x1="55.5" y1="25.5" x2="55.5" y2="203"/><line class="cls-1" x1="55.5" y1="202.5" x2="344.5" y2="202.5"/></g><g id="labels-horizontal"><path class="cls-2" d="M81.32,211.53h.88v-2.82h-.7v-.32a2.29,2.29,0,0,0,.81-.28h.38v3.42h.79v.41H81.32Z"/><path class="cls-2" d="M32.9,202.74c0-1.5.54-2.3,1.44-2.3s1.43.81,1.43,2.3-.54,2.33-1.43,2.33S32.9,204.24,32.9,202.74Zm2.3,0c0-1.31-.35-1.84-.87-1.84s-.88.53-.88,1.84.35,1.87.88,1.87S35.21,204,35.21,202.74Z"/><path class="cls-2" d="M31.34,152.51h1v-3.29h-.81v-.37a2.64,2.64,0,0,0,.95-.33h.44v4h.92V153H31.34Z"/><path class="cls-2" d="M34.71,150.74c0-1.5.54-2.3,1.44-2.3s1.43.81,1.43,2.3-.54,2.33-1.43,2.33S34.71,152.24,34.71,150.74Zm2.3,0c0-1.31-.35-1.84-.87-1.84s-.88.53-.88,1.84.35,1.87.88,1.87S37,152,37,150.74Z"/><path class="cls-2" d="M31.07,99.64c1.34-1.34,2.1-2.14,2.1-2.87a.79.79,0,0,0-.85-.87,1.32,1.32,0,0,0-1,.54L31,96.11a1.76,1.76,0,0,1,1.35-.68,1.24,1.24,0,0,1,1.34,1.32c0,.84-.76,1.67-1.82,2.78.25,0,.52,0,.75,0H34v.5H31.07Z"/><path class="cls-2" d="M34.71,97.74c0-1.5.54-2.3,1.44-2.3s1.43.81,1.43,2.3-.54,2.33-1.43,2.33S34.71,99.24,34.71,97.74Zm2.3,0c0-1.31-.35-1.84-.87-1.84s-.88.53-.88,1.84.35,1.87.88,1.87S37,99,37,97.74Z"/><path class="cls-2" d="M31.26,42.06a1.52,1.52,0,0,0,1.14.53.83.83,0,0,0,.92-.82c0-.53-.36-.89-1.43-.89v-.44c1,0,1.27-.36,1.27-.83a.69.69,0,0,0-.77-.71,1.35,1.35,0,0,0-1,.46L31.14,39a1.84,1.84,0,0,1,1.28-.56c.78,0,1.34.41,1.34,1.13a1.11,1.11,0,0,1-.81,1.06v0a1.15,1.15,0,0,1,1,1.13,1.32,1.32,0,0,1-1.47,1.27A1.9,1.9,0,0,1,31,42.44Z"/><path class="cls-2" d="M34.71,40.74c0-1.5.54-2.3,1.44-2.3s1.43.81,1.43,2.3-.54,2.33-1.43,2.33S34.71,42.24,34.71,40.74Zm2.3,0c0-1.31-.35-1.84-.87-1.84s-.88.53-.88,1.84.35,1.87.88,1.87S37,42,37,40.74Z"/><path class="cls-2" d="M128.08,212.64c1.15-1.15,1.8-1.83,1.8-2.45a.68.68,0,0,0-.73-.75,1.13,1.13,0,0,0-.82.46l-.28-.28a1.5,1.5,0,0,1,1.16-.58,1.06,1.06,0,0,1,1.15,1.13c0,.72-.65,1.43-1.56,2.38.21,0,.44,0,.64,0h1.11v.43h-2.47Z"/><path class="cls-2" d="M183.75,212.15a1.3,1.3,0,0,0,1,.46.71.71,0,0,0,.79-.7c0-.46-.31-.76-1.22-.76v-.38c.82,0,1.08-.31,1.08-.71a.59.59,0,0,0-.66-.61,1.16,1.16,0,0,0-.82.39l-.26-.31a1.57,1.57,0,0,1,1.1-.48c.67,0,1.14.35,1.14,1a1,1,0,0,1-.7.91v0a1,1,0,0,1,.83,1,1.13,1.13,0,0,1-1.26,1.09,1.63,1.63,0,0,1-1.26-.54Z"/><path class="cls-2" d="M245.15,211.88h-.52v1.06h-.47v-1.06h-1.72v-.32l1.64-2.45h.55v2.38h.52Zm-1-.4v-1.11c0-.2,0-.53,0-.74h0c-.1.19-.21.35-.31.54l-.89,1.31Z"/><path class="cls-2" d="M293.73,212.16a1.3,1.3,0,0,0,1,.44.83.83,0,0,0,.84-.87.77.77,0,0,0-.82-.84,1.08,1.08,0,0,0-.65.23l-.26-.17.13-1.84h1.91v.43h-1.48l-.1,1.13a1.18,1.18,0,0,1,.59-.16,1.1,1.1,0,0,1,1.19,1.2,1.25,1.25,0,0,1-1.29,1.3,1.67,1.67,0,0,1-1.25-.52Z"/><path class="cls-2" d="M343.73,209.75a.83.83,0,0,0-.63-.3c-.53,0-1,.41-1,1.63a1.23,1.23,0,0,1,.89-.48,1,1,0,0,1,1.09,1.18,1.16,1.16,0,0,1-1.13,1.23c-.75,0-1.32-.61-1.32-1.84,0-1.54.7-2.13,1.46-2.13a1.21,1.21,0,0,1,.92.41Zm-.12,2c0-.5-.23-.81-.71-.81a1,1,0,0,0-.8.5c.06.74.35,1.15.84,1.15S343.62,212.28,343.62,211.78Z"/><path class="cls-2" d="M24.37,13.23H23.29v-.74h3v.74H25.25v3.17h-.88Z"/><path class="cls-2" d="M28.16,14.48a.41.41,0,0,0-.47-.43,1.6,1.6,0,0,0-.79.27l-.31-.58a2.46,2.46,0,0,1,1.27-.39c.76,0,1.18.43,1.18,1.34v1.7h-.72l-.07-.31h0a1.31,1.31,0,0,1-.87.38.85.85,0,0,1-.88-.9C26.49,14.94,27,14.6,28.16,14.48Zm-.49,1.3a.66.66,0,0,0,.49-.25V15c-.63.08-.83.26-.83.49S27.46,15.78,27.67,15.78Z"/><path class="cls-2" d="M30,15.5a1.28,1.28,0,0,0,.77.31c.26,0,.38-.1.38-.25s-.3-.29-.61-.41-.79-.38-.79-.88.45-.93,1.14-.93a1.71,1.71,0,0,1,1,.38l-.4.53A1.1,1.1,0,0,0,31,14c-.23,0-.34.08-.34.23s.28.26.58.38.8.35.8.89-.43,1-1.22,1a1.92,1.92,0,0,1-1.14-.41Z"/><path class="cls-2" d="M34.25,14.48a.41.41,0,0,0-.47-.43,1.6,1.6,0,0,0-.79.27l-.31-.58A2.46,2.46,0,0,1,34,13.35c.76,0,1.18.43,1.18,1.34v1.7h-.72l-.07-.31h0a1.31,1.31,0,0,1-.87.38.85.85,0,0,1-.88-.9C32.58,14.94,33.08,14.6,34.25,14.48Zm-.49,1.3a.66.66,0,0,0,.49-.25V15c-.63.08-.83.26-.83.49S33.55,15.78,33.76,15.78Z"/><path class="cls-2" d="M38.45,13.35a1,1,0,0,1,.73.31l0-.46v-1H40v4.2H39.3l-.06-.29h0a1.18,1.18,0,0,1-.79.37c-.74,0-1.22-.59-1.22-1.56A1.39,1.39,0,0,1,38.45,13.35Zm.21,2.4a.56.56,0,0,0,.49-.27V14.26a.71.71,0,0,0-.49-.19c-.28,0-.53.26-.53.83S38.31,15.75,38.66,15.75Z"/><path class="cls-2" d="M42.15,13.35a1.26,1.26,0,0,1,1.27,1.43,1.79,1.79,0,0,1,0,.37H41.6a.72.72,0,0,0,.77.65,1.2,1.2,0,0,0,.64-.2l.29.53a2,2,0,0,1-1.06.34,1.45,1.45,0,0,1-1.51-1.56A1.46,1.46,0,0,1,42.15,13.35Zm.52,1.25c0-.34-.14-.58-.5-.58s-.52.19-.58.58Z"/><path class="cls-2" d="M45.5,13.42h.72l.06.38h0a1.25,1.25,0,0,1,.9-.46.82.82,0,0,1,.82.5,1.3,1.3,0,0,1,.94-.5c.64,0,.93.46.93,1.2v1.85H49V14.66c0-.43-.11-.56-.37-.56a.79.79,0,0,0-.51.29v2h-.88V14.66c0-.43-.11-.56-.37-.56a.78.78,0,0,0-.5.29v2H45.5Z"/><path class="cls-2" d="M52,13.35a1.46,1.46,0,0,1,1.45,1.56,1.45,1.45,0,1,1-2.9,0A1.46,1.46,0,0,1,52,13.35Zm0,2.4c.36,0,.55-.33.55-.85s-.19-.85-.55-.85-.55.33-.55.85S51.67,15.75,52,15.75Z"/><path class="cls-2" d="M54.2,13.42h.72l.06.52h0a1,1,0,0,1,.85-.59.85.85,0,0,1,.35.06l-.14.76a1.1,1.1,0,0,0-.32,0,.74.74,0,0,0-.65.55v1.73H54.2Z"/><path class="cls-2" d="M56.83,14.11h-.41v-.65l.46,0,.1-.79h.73v.79h.71v.69h-.71V15.3c0,.34.15.47.38.47a.83.83,0,0,0,.28-.06l.14.64a2.13,2.13,0,0,1-.66.11c-.74,0-1-.46-1-1.15Z"/><path class="cls-2" d="M60.61,14.48a.41.41,0,0,0-.47-.43,1.6,1.6,0,0,0-.79.27L59,13.74a2.46,2.46,0,0,1,1.27-.39c.76,0,1.18.43,1.18,1.34v1.7h-.72l-.07-.31h0a1.31,1.31,0,0,1-.87.38.85.85,0,0,1-.88-.9C58.94,14.94,59.44,14.6,60.61,14.48Zm-.49,1.3a.66.66,0,0,0,.49-.25V15c-.63.08-.83.26-.83.49S59.91,15.78,60.12,15.78Z"/><path class="cls-2" d="M62.36,12.19h.88v3.32c0,.19.08.25.16.25h.11l.11.65a1.15,1.15,0,0,1-.44.07c-.61,0-.81-.4-.81-1Z"/><path class="cls-2" d="M64.12,12.52a.51.51,0,1,1,.51.46A.47.47,0,0,1,64.12,12.52Zm.07.9h.88v3h-.88Z"/><path class="cls-2" d="M67,13.35a1,1,0,0,1,.73.31l0-.46v-1h.88v4.2H67.9l-.06-.29h0a1.18,1.18,0,0,1-.79.37c-.74,0-1.22-.59-1.22-1.56A1.39,1.39,0,0,1,67,13.35Zm.21,2.4a.56.56,0,0,0,.49-.27V14.26a.71.71,0,0,0-.49-.19c-.28,0-.53.26-.53.83S66.91,15.75,67.25,15.75Z"/><path class="cls-2" d="M71.08,14.48a.41.41,0,0,0-.47-.43,1.6,1.6,0,0,0-.79.27l-.31-.58a2.46,2.46,0,0,1,1.27-.39c.76,0,1.18.43,1.18,1.34v1.7h-.72l-.07-.31h0a1.31,1.31,0,0,1-.87.38.85.85,0,0,1-.88-.9C69.41,14.94,69.9,14.6,71.08,14.48Zm-.49,1.3a.66.66,0,0,0,.49-.25V15c-.63.08-.83.26-.83.49S70.38,15.78,70.59,15.78Z"/><path class="cls-2" d="M73.91,13.35a1,1,0,0,1,.73.31l0-.46v-1h.88v4.2h-.72l-.06-.29h0a1.18,1.18,0,0,1-.79.37c-.74,0-1.22-.59-1.22-1.56A1.39,1.39,0,0,1,73.91,13.35Zm.21,2.4a.56.56,0,0,0,.49-.27V14.26a.71.71,0,0,0-.49-.19c-.28,0-.53.26-.53.83S73.78,15.75,74.12,15.75Z"/><path class="cls-2" d="M77.79,14.73A5,5,0,0,1,78.58,12l.55.23a5.33,5.33,0,0,0,0,5l-.55.23A5,5,0,0,1,77.79,14.73Z"/><path class="cls-2" d="M79.69,13.65c0-.78.41-1.24,1-1.24s1,.46,1,1.24-.41,1.25-1,1.25S79.69,14.43,79.69,13.65Zm1.33,0c0-.55-.16-.74-.36-.74s-.36.19-.36.74.16.76.36.76S81,14.2,81,13.65Zm-.22,2.82,2.11-4.05h.5l-2.1,4.05Zm1.77-1.25c0-.78.41-1.24,1-1.24s1,.46,1,1.24-.41,1.25-1,1.25S82.57,16,82.57,15.22Zm1.34,0c0-.56-.16-.74-.36-.74s-.36.19-.36.74.16.76.36.76S83.91,15.78,83.91,15.22Z"/><path class="cls-2" d="M85.71,14.73a5.09,5.09,0,0,0-.64-2.51l.55-.23a5.14,5.14,0,0,1,0,5.48l-.55-.23A5.09,5.09,0,0,0,85.71,14.73Z"/><path class="cls-2" d="M161,226.3H162l.65,1.76.23.68h0l.23-.68.63-1.76h.94v3.91h-.83v-1.43c0-.38.07-1,.11-1.33h0l-.32.91-.61,1.52h-.35l-.6-1.52-.31-.91h0c0,.38.11.95.11,1.33v1.43H161Z"/><path class="cls-2" d="M166.91,227.16a1.56,1.56,0,1,1-1.45,1.56A1.46,1.46,0,0,1,166.91,227.16Zm0,2.4c.36,0,.55-.33.55-.85s-.19-.85-.55-.85-.55.33-.55.85S166.54,229.56,166.91,229.56Z"/><path class="cls-2" d="M169.08,227.23h.72l.06.38h0a1.25,1.25,0,0,1,.9-.46.82.82,0,0,1,.82.5,1.3,1.3,0,0,1,.94-.5c.64,0,.93.46.93,1.2v1.85h-.88v-1.73c0-.43-.11-.56-.37-.56a.79.79,0,0,0-.51.29v2h-.88v-1.73c0-.43-.11-.56-.37-.56a.78.78,0,0,0-.5.29v2h-.88Z"/><path class="cls-2" d="M175.56,227.16a1.26,1.26,0,0,1,1.26,1.43,1.79,1.79,0,0,1,0,.37H175a.72.72,0,0,0,.77.65,1.2,1.2,0,0,0,.64-.2l.29.53a2,2,0,0,1-1.05.34,1.56,1.56,0,0,1-.1-3.12Zm.52,1.25c0-.34-.14-.58-.5-.58s-.52.19-.58.58Z"/><path class="cls-2" d="M177.55,227.23h.72l.06.38h0a1.37,1.37,0,0,1,1-.45c.65,0,.92.46.92,1.2v1.85h-.88v-1.73c0-.43-.11-.56-.37-.56a.75.75,0,0,0-.55.29v2h-.88Z"/><path class="cls-2" d="M181.22,227.92h-.41v-.65l.46,0,.1-.79h.73v.79h.71v.69h-.71v1.19c0,.34.15.47.38.47a.83.83,0,0,0,.28-.06l.14.64a2.13,2.13,0,0,1-.66.11c-.74,0-1-.46-1-1.15Z"/><path class="cls-2" d="M184.73,227.16a1.56,1.56,0,1,1-1.45,1.56A1.46,1.46,0,0,1,184.73,227.16Zm0,2.4c.36,0,.55-.33.55-.85s-.19-.85-.55-.85-.55.33-.55.85S184.36,229.56,184.73,229.56Z"/><path class="cls-2" d="M189.34,227.16a1,1,0,0,1,.73.31l0-.46v-1h.88v4.2h-.72l-.06-.29h0a1.18,1.18,0,0,1-.79.37c-.74,0-1.22-.59-1.22-1.56A1.39,1.39,0,0,1,189.34,227.16Zm.21,2.4a.56.56,0,0,0,.49-.27v-1.22a.71.71,0,0,0-.49-.19c-.28,0-.53.26-.53.83S189.21,229.56,189.55,229.56Z"/><path class="cls-2" d="M193,227.16a1.26,1.26,0,0,1,1.27,1.43,1.79,1.79,0,0,1,0,.37h-1.78a.72.72,0,0,0,.77.65,1.19,1.19,0,0,0,.64-.2l.29.53a2,2,0,0,1-1.06.34,1.56,1.56,0,0,1-.1-3.12Zm.52,1.25c0-.34-.14-.58-.5-.58s-.52.19-.58.58Z"/><path class="cls-2" d="M196.39,226h.88v3.32c0,.19.08.25.16.25h.11l.11.65a1.15,1.15,0,0,1-.44.07c-.61,0-.81-.4-.81-1Z"/><path class="cls-2" d="M199.79,228.29a.41.41,0,0,0-.47-.43,1.6,1.6,0,0,0-.79.27l-.31-.58a2.46,2.46,0,0,1,1.27-.39c.76,0,1.18.43,1.18,1.34v1.7H200l-.07-.31h0a1.31,1.31,0,0,1-.87.38.85.85,0,0,1-.88-.9C198.12,228.75,198.61,228.41,199.79,228.29Zm-.49,1.3a.66.66,0,0,0,.49-.25v-.52c-.63.08-.83.26-.83.49S199.09,229.59,199.3,229.59Z"/><path class="cls-2" d="M202.9,227.23h.72l.06.38h0a1.25,1.25,0,0,1,.9-.46.82.82,0,0,1,.82.5,1.3,1.3,0,0,1,.94-.5c.64,0,.93.46.93,1.2v1.85h-.88v-1.73c0-.43-.11-.56-.37-.56a.79.79,0,0,0-.51.29v2h-.88v-1.73c0-.43-.11-.56-.37-.56a.78.78,0,0,0-.5.29v2h-.88Z"/><path class="cls-2" d="M208.13,227.23H209V229c0,.43.11.56.37.56s.35-.1.53-.33v-2h.88v3h-.72l-.07-.41h0a1.16,1.16,0,0,1-.94.49c-.65,0-.92-.46-.92-1.2Z"/><path class="cls-2" d="M212.91,227.16a1.26,1.26,0,0,1,1.26,1.43,1.78,1.78,0,0,1,0,.37h-1.78a.72.72,0,0,0,.77.65,1.2,1.2,0,0,0,.64-.2l.29.53a1.94,1.94,0,0,1-1.05.34,1.56,1.56,0,0,1-.1-3.12Zm.52,1.25c0-.34-.14-.58-.5-.58s-.52.19-.58.58Z"/><path class="cls-2" d="M214.9,227.23h.72l.06.52h0a1,1,0,0,1,.85-.59.85.85,0,0,1,.35.06l-.14.76a1.1,1.1,0,0,0-.32,0,.74.74,0,0,0-.65.55v1.73h-.88Z"/><path class="cls-2" d="M217.53,227.92h-.41v-.65l.46,0,.1-.79h.73v.79h.71v.69h-.71v1.19c0,.34.15.47.38.47a.83.83,0,0,0,.28-.06l.14.64a2.14,2.14,0,0,1-.66.11c-.74,0-1-.46-1-1.15Z"/><path class="cls-2" d="M221,227.16a1.26,1.26,0,0,1,1.26,1.43,1.79,1.79,0,0,1,0,.37h-1.78a.72.72,0,0,0,.77.65,1.2,1.2,0,0,0,.64-.2l.29.53a2,2,0,0,1-1.05.34,1.56,1.56,0,0,1-.1-3.12Zm.52,1.25c0-.34-.14-.58-.5-.58s-.52.19-.58.58Z"/><path class="cls-2" d="M224.38,228.54a5,5,0,0,1,.79-2.74l.55.23a5.33,5.33,0,0,0,0,5l-.55.23A5,5,0,0,1,224.38,228.54Z"/><path class="cls-2" d="M226.52,227.23h.72l.06.38h0a1.25,1.25,0,0,1,.9-.46.82.82,0,0,1,.82.5,1.3,1.3,0,0,1,.94-.5c.64,0,.93.46.93,1.2v1.85H230v-1.73c0-.43-.11-.56-.37-.56a.79.79,0,0,0-.51.29v2h-.88v-1.73c0-.43-.11-.56-.37-.56a.78.78,0,0,0-.5.29v2h-.88Z"/><path class="cls-2" d="M233,227.16a1.26,1.26,0,0,1,1.26,1.43,1.78,1.78,0,0,1,0,.37h-1.78a.72.72,0,0,0,.77.65,1.2,1.2,0,0,0,.64-.2l.29.53a1.94,1.94,0,0,1-1.05.34,1.56,1.56,0,0,1-.1-3.12Zm.52,1.25c0-.34-.14-.58-.5-.58s-.52.19-.58.58Z"/><path class="cls-2" d="M235.13,229.31a1.28,1.28,0,0,0,.77.31c.26,0,.38-.1.38-.25s-.3-.29-.61-.41-.79-.38-.79-.88.45-.93,1.14-.93a1.71,1.71,0,0,1,1,.38l-.4.53a1.1,1.1,0,0,0-.63-.25c-.23,0-.34.08-.34.23s.28.26.58.38.8.35.8.89-.43,1-1.22,1a1.91,1.91,0,0,1-1.14-.41Z"/><path class="cls-2" d="M239,227.16a1.26,1.26,0,0,1,1.26,1.43,1.78,1.78,0,0,1,0,.37h-1.78a.72.72,0,0,0,.77.65,1.2,1.2,0,0,0,.64-.2l.29.53a1.94,1.94,0,0,1-1.05.34,1.56,1.56,0,0,1-.1-3.12Zm.52,1.25c0-.34-.14-.58-.5-.58s-.52.19-.58.58Z"/><path class="cls-2" d="M241.12,229.31a1.28,1.28,0,0,0,.77.31c.26,0,.38-.1.38-.25s-.3-.29-.61-.41-.79-.38-.79-.88.45-.93,1.14-.93a1.71,1.71,0,0,1,1,.38l-.4.53a1.1,1.1,0,0,0-.63-.25c-.23,0-.34.08-.34.23s.28.26.58.38.8.35.8.89-.43,1-1.22,1a1.91,1.91,0,0,1-1.14-.41Z"/><path class="cls-2" d="M244.3,228.54a5.09,5.09,0,0,0-.63-2.51l.55-.23a5.14,5.14,0,0,1,0,5.48l-.55-.23A5.09,5.09,0,0,0,244.3,228.54Z"/><path class="cls-2" d="M247.82,13.94h.5L249,15.7l.23.67h0l.23-.67.63-1.76h.49v3.28h-.4V15.42c0-.29,0-.68.05-1h0l-.26.73-.63,1.72h-.24l-.63-1.72-.26-.73h0c0,.29,0,.68,0,1v1.81h-.38Z"/><path class="cls-2" d="M252.45,14.73A1.16,1.16,0,0,1,253.58,16a1.13,1.13,0,1,1-2.25,0A1.16,1.16,0,0,1,252.45,14.73Zm0,2.21c.42,0,.7-.37.7-.93s-.28-.94-.7-.94-.7.38-.7.94S252,16.94,252.45,16.94Z"/><path class="cls-2" d="M255.19,14.73a1,1,0,0,1,.68.28l0-.42v-.94h.42v3.56h-.34l0-.29h0a1.1,1.1,0,0,1-.74.35c-.61,0-1-.46-1-1.27A1.15,1.15,0,0,1,255.19,14.73Zm0,2.21a.82.82,0,0,0,.62-.34V15.33a.85.85,0,0,0-.59-.26c-.39,0-.7.38-.7.93S254.8,16.94,255.23,16.94Z"/><path class="cls-2" d="M257.1,14a.29.29,0,0,1,.57,0,.29.29,0,0,1-.57,0Zm.08.77h.41v2.43h-.41Z"/><path class="cls-2" d="M259.6,14a.68.68,0,0,0-.28-.06c-.23,0-.34.16-.34.47v.38h.52v.34H259v2.1h-.41v-2.1h-.33v-.31l.33,0v-.38c0-.5.23-.81.71-.81a1.09,1.09,0,0,1,.41.08Z"/><path class="cls-2" d="M260,14a.29.29,0,0,1,.57,0,.29.29,0,0,1-.57,0Zm.08.77h.41v2.43h-.41Z"/><path class="cls-2" d="M262.37,14.73a1,1,0,0,1,.71.29l-.21.27a.73.73,0,0,0-.49-.22c-.44,0-.76.38-.76.94s.3.93.75.93a.87.87,0,0,0,.57-.25l.19.27a1.21,1.21,0,0,1-.79.32A1.14,1.14,0,0,1,261.2,16,1.18,1.18,0,0,1,262.37,14.73Z"/><path class="cls-2" d="M265.08,15.68c0-.31-.1-.61-.5-.61a1.31,1.31,0,0,0-.73.26l-.17-.29a1.8,1.8,0,0,1,1-.32c.59,0,.85.4.85,1v1.49h-.34l0-.29h0a1.32,1.32,0,0,1-.81.35.66.66,0,0,1-.72-.69C263.59,16.06,264,15.8,265.08,15.68ZM264.42,17a1,1,0,0,0,.67-.33V16c-.82.1-1.09.3-1.09.61A.37.37,0,0,0,264.42,17Z"/><path class="cls-2" d="M267.24,14.73a1,1,0,0,1,.68.28l0-.42v-.94h.42v3.56H268l0-.29h0a1.1,1.1,0,0,1-.74.35c-.61,0-1-.46-1-1.27A1.15,1.15,0,0,1,267.24,14.73Zm0,2.21a.82.82,0,0,0,.62-.34V15.33a.85.85,0,0,0-.59-.26c-.39,0-.7.38-.7.93S266.86,16.94,267.28,16.94Z"/><path class="cls-2" d="M270.18,14.73A1.16,1.16,0,0,1,271.3,16a1.13,1.13,0,1,1-2.25,0A1.16,1.16,0,0,1,270.18,14.73Zm0,2.21c.42,0,.7-.37.7-.93s-.28-.94-.7-.94-.7.38-.7.94S269.76,16.94,270.18,16.94Z"/><path class="cls-2" d="M274,14.73a1,1,0,0,1,.68.28l0-.42v-.94h.42v3.56h-.34l0-.29h0a1.09,1.09,0,0,1-.74.35c-.61,0-1-.46-1-1.27A1.15,1.15,0,0,1,274,14.73Zm0,2.21a.82.82,0,0,0,.62-.34V15.33a.85.85,0,0,0-.59-.26c-.39,0-.7.38-.7.93S273.64,16.94,274.06,16.94Z"/><path class="cls-2" d="M276.92,14.73c.62,0,1,.45,1,1.14a1.5,1.5,0,0,1,0,.23h-1.64A.81.81,0,0,0,277,17a1.1,1.1,0,0,0,.61-.19l.15.27a1.44,1.44,0,0,1-.8.25A1.16,1.16,0,0,1,275.83,16,1.17,1.17,0,0,1,276.92,14.73Zm.61,1.1c0-.5-.22-.77-.6-.77a.76.76,0,0,0-.7.77Z"/><path class="cls-2" d="M278.8,14.85a.31.31,0,1,1-.3.32A.3.3,0,0,1,278.8,14.85Zm0,1.8a.32.32,0,1,1-.3.32A.3.3,0,0,1,278.8,16.65Z"/><path class="cls-2" d="M281.07,16.51a1.28,1.28,0,0,0,.91.41c.43,0,.69-.21.69-.54s-.24-.44-.55-.58l-.47-.21a.88.88,0,0,1,.37-1.72,1.34,1.34,0,0,1,1,.41l-.22.27a1.06,1.06,0,0,0-.75-.31c-.37,0-.62.18-.62.48s.29.43.54.54l.47.2a.91.91,0,0,1,.68.88,1,1,0,0,1-1.12.94,1.58,1.58,0,0,1-1.15-.49Z"/><path class="cls-2" d="M283.84,15.13h-.36v-.31l.38,0,0-.68h.34v.68h.66v.34h-.66v1.35c0,.3.1.47.38.47a.9.9,0,0,0,.27-.06l.08.31a1.5,1.5,0,0,1-.45.09c-.52,0-.7-.33-.7-.81Z"/><path class="cls-2" d="M286.42,14.73c.62,0,1,.45,1,1.14a1.5,1.5,0,0,1,0,.23h-1.64a.81.81,0,0,0,.81.86,1.1,1.1,0,0,0,.61-.19l.15.27a1.45,1.45,0,0,1-.8.25A1.16,1.16,0,0,1,285.33,16,1.17,1.17,0,0,1,286.42,14.73Zm.61,1.1c0-.5-.22-.77-.6-.77a.76.76,0,0,0-.7.77Z"/><path class="cls-2" d="M288.2,17.14v0a.45.45,0,0,1-.22-.39.57.57,0,0,1,.27-.45v0a.86.86,0,0,1,.6-1.52,1,1,0,0,1,.35.06H290v.32h-.5a.7.7,0,0,1,.2.5.83.83,0,0,1-.89.85.85.85,0,0,1-.37-.08.36.36,0,0,0-.16.29c0,.16.1.26.43.26h.47c.57,0,.85.18.85.58s-.47.84-1.23.84c-.6,0-1-.24-1-.66A.7.7,0,0,1,288.2,17.14Zm.71.92c.47,0,.77-.24.77-.5s-.17-.3-.49-.3h-.42a1.17,1.17,0,0,1-.32,0,.51.51,0,0,0-.25.41C288.21,17.89,288.47,18.06,288.91,18.06Zm.46-2.46a.52.52,0,1,0-1,0,.52.52,0,1,0,1,0Z"/><path class="cls-2" d="M291.78,13.94h1c.73,0,1.21.25,1.21,1s-.5,1-1.21,1h-.59v1.3h-.42Zm1,1.64c.58,0,.85-.21.85-.68s-.29-.63-.85-.63h-.54v1.31Z"/><path class="cls-2" d="M294,17.83a.67.67,0,0,0,.45-.61h-.05a.28.28,0,0,1-.29-.29.29.29,0,0,1,.3-.29c.22,0,.35.18.35.49a1,1,0,0,1-.66.94Z"/><path class="cls-2" d="M297.5,14.73c.62,0,1,.45,1,1.14a1.5,1.5,0,0,1,0,.23h-1.64a.81.81,0,0,0,.81.86,1.1,1.1,0,0,0,.61-.19l.15.27a1.44,1.44,0,0,1-.8.25A1.16,1.16,0,0,1,296.41,16,1.17,1.17,0,0,1,297.5,14.73Zm.61,1.1c0-.5-.22-.77-.6-.77a.76.76,0,0,0-.7.77Z"/><path class="cls-2" d="M299.16,15.13h-.36v-.31l.38,0,.05-.68h.35v.68h.66v.34h-.66v1.35c0,.3.09.47.38.47a.91.91,0,0,0,.28-.06l.08.31a1.51,1.51,0,0,1-.45.09c-.52,0-.7-.33-.7-.81Z"/><path class="cls-2" d="M303.36,15.68c0-.31-.1-.61-.5-.61a1.31,1.31,0,0,0-.72.26L302,15a1.81,1.81,0,0,1,1-.32c.6,0,.85.4.85,1v1.49h-.34l0-.29h0a1.32,1.32,0,0,1-.81.35.66.66,0,0,1-.72-.69C301.86,16.06,302.32,15.8,303.36,15.68ZM302.69,17a1,1,0,0,0,.67-.33V16c-.82.1-1.09.3-1.09.61A.37.37,0,0,0,302.69,17Z"/><path class="cls-2" d="M304.64,13.66H305v3.1c0,.13.06.18.12.18h.09l.06.31a.55.55,0,0,1-.24,0c-.31,0-.44-.2-.44-.55Z"/><path class="cls-2" d="M308.41,13.88a1.21,1.21,0,0,1,.9.41l-.24.26a.88.88,0,0,0-.66-.3c-.63,0-1,.51-1,1.33s.4,1.35,1,1.35a1,1,0,0,0,.75-.37l.24.26a1.26,1.26,0,0,1-1,.48c-.83,0-1.44-.63-1.44-1.7A1.51,1.51,0,0,1,308.41,13.88Z"/><path class="cls-2" d="M310,14a.29.29,0,0,1,.57,0,.29.29,0,0,1-.57,0Zm.08.77h.41v2.43H310Z"/><path class="cls-2" d="M311.36,14.79h.34l0,.44h0a.83.83,0,0,1,.69-.5.6.6,0,0,1,.26,0l-.08.36a.67.67,0,0,0-.24,0c-.21,0-.45.15-.62.56v1.56h-.41Z"/><path class="cls-2" d="M314.13,14.73a1,1,0,0,1,.71.29l-.21.27a.73.73,0,0,0-.49-.22c-.44,0-.76.38-.76.94s.3.93.75.93a.87.87,0,0,0,.57-.25l.18.27a1.21,1.21,0,0,1-.79.32A1.14,1.14,0,0,1,313,16,1.18,1.18,0,0,1,314.13,14.73Z"/><path class="cls-2" d="M315.48,14.79h.42v1.49c0,.46.13.65.46.65s.43-.12.66-.41V14.79h.41v2.43h-.34l0-.38h0a1,1,0,0,1-.8.44c-.52,0-.75-.33-.75-1Z"/><path class="cls-2" d="M318.33,13.66h.41v3.1c0,.13.06.18.12.18h.09l.06.31a.55.55,0,0,1-.24,0c-.31,0-.43-.2-.43-.55Z"/><path class="cls-2" d="M321.08,15.68c0-.31-.1-.61-.5-.61a1.31,1.31,0,0,0-.72.26l-.17-.29a1.81,1.81,0,0,1,1-.32c.6,0,.85.4.85,1v1.49h-.34l0-.29h0a1.32,1.32,0,0,1-.81.35.66.66,0,0,1-.72-.69C319.58,16.06,320,15.8,321.08,15.68ZM320.41,17a1,1,0,0,0,.67-.33V16c-.82.1-1.09.3-1.09.61A.37.37,0,0,0,320.41,17Z"/><path class="cls-2" d="M323.35,14.73a1,1,0,0,1,.71.29l-.21.27a.73.73,0,0,0-.49-.22c-.44,0-.76.38-.76.94s.3.93.75.93a.87.87,0,0,0,.57-.25l.19.27a1.21,1.21,0,0,1-.79.32A1.14,1.14,0,0,1,322.18,16,1.18,1.18,0,0,1,323.35,14.73Z"/><path class="cls-2" d="M324.66,14a.29.29,0,0,1,.57,0,.29.29,0,0,1-.57,0Zm.07.77h.41v2.43h-.41Z"/><path class="cls-2" d="M327,14.73A1.16,1.16,0,0,1,328.13,16a1.13,1.13,0,1,1-2.25,0A1.16,1.16,0,0,1,327,14.73Zm0,2.21c.42,0,.7-.37.7-.93s-.28-.94-.7-.94-.7.38-.7.94S326.59,16.94,327,16.94Zm0-2.59h-.32l.45-.71h.43Z"/><path class="cls-2" d="M328.86,14.79h.34l0,.35h0a1.15,1.15,0,0,1,.82-.41c.51,0,.74.33.74,1v1.54h-.41V15.74c0-.46-.14-.65-.46-.65s-.42.13-.67.38v1.76h-.41Z"/><path class="cls-2" d="M332.58,17c1-1,1.5-1.53,1.5-2a.57.57,0,0,0-.61-.63.94.94,0,0,0-.68.39l-.24-.24a1.26,1.26,0,0,1,1-.49.89.89,0,0,1,1,.94c0,.6-.54,1.2-1.3,2l.54,0h.93v.36h-2.06Z"/><path class="cls-2" d="M335.19,15.62c0-1.07.38-1.65,1-1.65s1,.58,1,1.65-.39,1.67-1,1.67S335.19,16.69,335.19,15.62Zm1.65,0c0-.94-.25-1.32-.62-1.32s-.62.38-.62,1.32.25,1.34.63,1.34S336.83,16.55,336.83,15.62Z"/><path class="cls-2" d="M337.76,15.62c0-1.07.39-1.65,1-1.65s1,.58,1,1.65-.39,1.67-1,1.67S337.76,16.69,337.76,15.62Zm1.65,0c0-.94-.25-1.32-.62-1.32s-.63.38-.63,1.32.25,1.34.63,1.34S339.41,16.55,339.41,15.62Z"/><path class="cls-2" d="M342.47,16.34H342v.88h-.39v-.88h-1.44v-.27l1.37-2H342v2h.44Zm-.83-.33v-.93c0-.17,0-.45,0-.62h0c-.08.16-.17.3-.26.45L340.64,16Z"/></g><g id="Capa_4" data-name="Capa 4"><polyline class="cls-3" points="55.5 202.5 68.5 172.5 72.5 155.5 87.5 118.5 105.5 98.5 156.5 94.5 344.5 83.5"/><g id="Capa_5" data-name="Capa 5"><polyline class="cls-4" points="55.5 202.5 84.5 184.5 104.5 177.5 156.5 173.5 228.5 172.5 287.5 165.5 344.5 165.5"/></g></g></svg>