<?xml version="1.0" encoding="utf-8"?>
<!-- Generator: Adobe Illustrator 21.0.2, SVG Export Plug-In . SVG Version: 6.00 Build 0)  -->
<svg version="1.1" id="Capa_1" xmlns="http://www.w3.org/2000/svg" xmlns:xlink="http://www.w3.org/1999/xlink" x="0px" y="0px"
	 viewBox="0 0 463 463" style="enable-background:new 0 0 463 463;" xml:space="preserve">
<style type="text/css">
	.st0{fill:#C2C3C4;}
</style>
<g>
	<path class="st0" d="M303.5,0C215.6,0,144,71.6,144,159.5c0,36.2,12.1,69.6,32.5,96.4l-32.3,32.3c-0.2,0.2-0.4,0.4-0.6,0.6
		c-2.6-0.6-5.4-0.8-8.1-0.8c-10.6,0-20.5,4.1-27.9,11.6l-96,96C4.1,403,0,412.9,0,423.5s4.1,20.5,11.6,27.9
		C19,458.9,29,463,39.5,463s20.5-4.1,27.9-11.6l96-96c7.5-7.5,11.6-17.4,11.6-27.9c0-2.8-0.3-5.5-0.8-8.1c0.2-0.2,0.4-0.4,0.6-0.6
		l32.3-32.3c26.8,20.4,60.2,32.5,96.4,32.5c87.9,0,159.5-71.6,159.5-159.5S391.4,0,303.5,0z M56.8,440.8c-4.6,4.6-10.8,7.2-17.3,7.2
		s-12.7-2.5-17.3-7.2c-4.6-4.6-7.2-10.8-7.2-17.3s2.5-12.7,7.2-17.3l86.7-86.7l34.6,34.6L56.8,440.8z M154.1,343.5l-34.5-34.5
		c4.6-3.9,10.3-5.9,16-5.9c6.3,0,12.6,2.4,17.3,7.2c4.6,4.6,7.2,10.8,7.2,17.3C160,333.4,157.9,339,154.1,343.5z M167.7,304.7
		c-1.3-1.8-2.7-3.5-4.3-5.1c-1.6-1.6-3.3-3-5.1-4.3l27.8-27.8c3,3.3,6.1,6.4,9.4,9.4L167.7,304.7z M303.5,304
		C223.8,304,159,239.2,159,159.5S223.8,15,303.5,15S448,79.8,448,159.5S383.2,304,303.5,304z"/>
	<path class="st0" d="M303.5,32C233.2,32,176,89.2,176,159.5S233.2,287,303.5,287S431,229.8,431,159.5S373.8,32,303.5,32z
		 M303.5,272c-62,0-112.5-50.5-112.5-112.5S241.5,47,303.5,47S416,97.5,416,159.5S365.5,272,303.5,272z"/>
	<path class="st0" d="M355.6,79.4c-3.5-2.3-8.1-1.3-10.4,2.2c-2.3,3.5-1.3,8.1,2.2,10.4c22.9,14.9,36.6,40.2,36.6,67.5
		c0,18.7-6.5,36.9-18.4,51.2c-2.6,3.2-2.2,7.9,1,10.6c1.4,1.2,3.1,1.7,4.8,1.7c2.2,0,4.3-0.9,5.8-2.7c14.1-17,21.8-38.6,21.8-60.8
		C399,127.1,382.8,97.2,355.6,79.4z"/>
	<path class="st0" d="M320.9,65.6c-5.7-1-11.5-1.6-17.4-1.6c-4.1,0-7.5,3.4-7.5,7.5s3.4,7.5,7.5,7.5c4.9,0,9.8,0.4,14.6,1.3
		c0.5,0.1,0.9,0.1,1.4,0.1c3.5,0,6.7-2.5,7.4-6.1C327.6,70.2,324.9,66.3,320.9,65.6z"/>
</g>
</svg>
