<?xml version="1.0" encoding="utf-8"?>
<!-- Generator: Adobe Illustrator 21.0.2, SVG Export Plug-In . SVG Version: 6.00 Build 0)  -->
<svg version="1.1" id="Layer_1" xmlns="http://www.w3.org/2000/svg" xmlns:xlink="http://www.w3.org/1999/xlink" x="0px" y="0px"
	 viewBox="0 0 641.2 463" style="enable-background:new 0 0 641.2 463;" xml:space="preserve">
<style type="text/css">
	.st0{fill:#C2C3C4;}
</style>
<path class="st0" d="M170.5,288.2c-9.5,7.8-15,19.5-15,31.9v44.3c0,5.5,4.4,9.9,9.9,9.9s9.9-4.4,9.9-9.9v-44.3
	c0-6.5,2.8-12.5,7.8-16.6c39.3-32.3,82-53.8,90.1-57.8c4.4-2.1,7.2-6.6,7.2-11.5v-62.4c0-3.3-1.7-6.4-4.4-8.2
	c-5.4-3.6-8.6-9.6-8.6-16V82.9c0-26.7,21.7-48.4,48.4-48.4h13.9c26.7,0,48.4,21.7,48.4,48.4v64.7c0,6.4-3.2,12.4-8.6,16
	c-2.8,1.8-4.4,4.9-4.4,8.2v62.3c0,4.9,2.8,9.4,7.2,11.5c8.2,4,50.8,25.5,90.1,57.8c4.9,4.1,7.8,10.1,7.8,16.6v44.3
	c0,5.5,4.4,9.9,9.9,9.9s9.9-4.4,9.9-9.9V320c0-12.4-5.5-24-15-31.9c-36.6-30.1-76-51.2-90.1-58.4v-53.2c8.2-7.4,13-17.9,13-29.1
	V82.7c0-37.6-30.6-68.2-68.2-68.2h-13.9c-37.6,0-68.2,30.6-68.2,68.2v64.7c0,11.2,4.8,21.7,13,29.1v53.2
	C246.5,236.9,207.2,258.1,170.5,288.2z"/>
<path class="st0" d="M143.7,77.7h-11.3c-31.6,0-57.4,25.7-57.4,57.4v52.7c0,9.4,3.9,18.2,10.6,24.5v41.4C73.3,260,42,277,12.9,300.9
	C4.7,307.6,0,317.6,0,328.3v36.1c0,5.5,4.4,9.9,9.9,9.9s9.9-4.4,9.9-9.9v-36.1c0-4.7,2.1-9.1,5.7-12.1
	c31.9-26.2,66.4-43.6,73.1-46.9c4.2-2,6.9-6.4,6.9-11v-50.8c0-3.3-1.7-6.4-4.4-8.2c-3.9-2.6-6.2-6.9-6.2-11.5v-52.7
	c0-20.7,16.9-37.6,37.6-37.6h11.3c20.7,0,37.6,16.9,37.6,37.6v52.7c0,4.6-2.3,8.9-6.2,11.5c-2.8,1.8-4.4,4.9-4.4,8.2v41.7
	c0,5.5,4.4,9.9,9.9,9.9s9.9-4.4,9.9-9.9v-36.9c6.7-6.3,10.6-15.1,10.6-24.5v-52.7C201.1,103.4,175.4,77.7,143.7,77.7z"/>
<path class="st0" d="M440,135.1v52.7c0,9.4,3.9,18.2,10.6,24.5v36.9c0,5.5,4.4,9.9,9.9,9.9s9.9-4.4,9.9-9.9v-41.7
	c0-3.3-1.6-6.4-4.4-8.2c-3.9-2.6-6.2-6.9-6.2-11.5v-52.7c0-20.7,16.9-37.6,37.6-37.6h11.3c20.7,0,37.6,16.9,37.6,37.6v52.7
	c0,4.6-2.3,8.9-6.2,11.5c-2.7,1.8-4.4,4.9-4.4,8.2v50.8c0,4.6,2.7,9,6.9,11c6.7,3.3,41.2,20.7,73.1,46.9c3.6,3,5.7,7.4,5.7,12.1
	v36.1c0,5.5,4.4,9.9,9.9,9.9s9.9-4.4,9.9-9.9v-36.1c0-10.7-4.7-20.7-12.9-27.4c-29.1-23.9-60.4-40.9-72.7-47.2l0-41.4
	c6.7-6.3,10.6-15.1,10.6-24.5v-52.7c0-31.7-25.8-57.4-57.4-57.4h-11.3C465.8,77.7,440.1,103.4,440,135.1z"/>
<path class="st0" d="M344.2,242.1c-5.5,0-9.9,4.4-9.9,9.9c0,6.4-5.2,11.5-11.5,11.5c-2.4,0-4.6-0.7-6.4-2c-0.4-0.4-0.9-0.8-1.4-1.1
	c-2.3-2.1-3.7-5.1-3.7-8.5c0-5.5-4.4-9.9-9.9-9.9s-9.9,4.4-9.9,9.9c0,8,3,15.2,7.9,20.8l-6.7,147.6c-0.1,3,1.1,5.8,3.3,7.8
	l20.9,18.8c1.9,1.7,4.3,2.6,6.6,2.6c2.4,0,4.7-0.8,6.6-2.5l20.6-18.5c2.2-2,3.4-4.8,3.3-7.8l-6.4-149.4c4.2-5.3,6.7-12,6.7-19.2
	C354.1,246.6,349.6,242.1,344.2,242.1z M323.4,426.4l-10.8-9.7l6-133.5c1.3,0.2,2.7,0.3,4,0.3c1.8,0,3.6-0.2,5.4-0.5l5.8,134
	L323.4,426.4z"/>
</svg>
